<svg xmlns="http://www.w3.org/2000/svg" data-name="Layer 1" width="882.34637" height="778.99856" style=""><rect id="backgroundrect" width="100%" height="100%" x="0" y="0" fill="none" stroke="none"/><title>remotely</title><g class="currentLayer" style=""><title>Layer 1</title><path d="M342.36195725585935,20.0599490222168 l3.46953,-5.362 a80.3872,80.3872 0 0 0 -3.55952,-8.33251 l-2.24352,1.8120500000000002 l1.7764199999999999,-2.74534 c-1.6929400000000001,-3.3325 -3.02505,-5.43215 -3.02505,-5.43215 s-6.95827,10.96511 -9.283,22.57466 l4.45222,6.88072 l-4.9288,-3.981 a32.52249,32.52249 0 0 0 -0.27041000000000004,4.0782 c0,13.74959 4.49056,24.89583 10.03,24.89583 s10.03,-11.14624 10.03,-24.89583 a42.818,42.818 0 0 0 -2.29454,-12.84723 z" fill="#e6e6e6" id="svg_1"/><path d="M366.9198372558594,31.980069022216796 l6.24485,-1.3381800000000001 a80.386,80.386 0 0 0 3.375,-8.40894 l-2.8677200000000003,-0.3050800000000001 l3.19738,-0.6851400000000002 c1.15933,-3.55352 1.70207,-5.9801400000000005 1.70207,-5.9801400000000005 s-12.67374,2.83326 -22.52676,9.39864 l-1.7172100000000001,8.01359 l-0.6702200000000001,-6.30016 a32.52414,32.52414 0 0 0 -3.07493,2.69252 c-9.72242,9.72242 -14.4287,20.77932 -10.51174,24.69627 s14.97385,-0.78932 24.69627,-10.51174 a42.81769,42.81769 0 0 0 7.46188,-10.70686 z" fill="#e6e6e6" id="svg_2"/><path d="M369.2008272558594,85.1839990222168 c-14.48118,0.92631 -30.25994,-0.053870000000000015 -47.04589,0 V46.7521490222168 c14.79122,2.30262 30.56472,2.06615 47.04589,0 z" fill="#e6e6e6" id="svg_3"/><path d="M472.80161725585936,115.1514990222168 l2.26263,-3.49679 a52.42392,52.42392 0 0 0 -2.32132,-5.434 l-1.4630800000000002,1.18172 l1.15847,-1.79036 c-1.104,-2.17326 -1.97276,-3.54253 -1.97276,-3.54253 a50.2414,50.2414 0 0 0 -6.05381,14.721870000000001 l2.90347,4.4872 l-3.21427,-2.59615 a21.20987,21.20987 0 0 0 -0.17635,2.65956 c0,8.96667 2.92849,16.2356 6.541,16.2356 s6.541,-7.26893 6.541,-16.2356 a27.92338,27.92338 0 0 0 -1.4963600000000001,-8.37821 z" fill="#e6e6e6" id="svg_4"/><path d="M488.8168272558594,122.92509902221678 l4.07252,-0.8726900000000002 a52.42092,52.42092 0 0 0 2.201,-5.48381 l-1.87016,-0.19900000000000004 l2.08514,-0.4468100000000001 c0.7560000000000001,-2.31739 1.11,-3.89989 1.11,-3.89989 a50.241,50.241 0 0 0 -14.690620000000001,6.12924 l-1.11987,5.226 l-0.43707000000000007,-4.10859 a21.20826,21.20826 0 0 0 -2.00529,1.7559 c-6.3404,6.34039 -9.40955,13.55105 -6.85515,16.10546 s9.76507,-0.51475 16.10546,-6.85515 a27.92314,27.92314 0 0 0 4.8662,-6.98238 z" fill="#e6e6e6" id="svg_5"/><path d="M490.3043572558594,157.6215690222168 c-9.44378,0.6040800000000001 -19.73376,-0.03513000000000001 -30.68057,0 v-25.063 a110.58424,110.58424 0 0 0 30.68057,0 z" fill="#e6e6e6" id="svg_6"/><path d="M484.4728072558594,231.89799902221682 c-8.33889,0.5334099999999999 -17.425,-0.031000000000000007 -27.091,0 V209.76727902221677 a97.6466,97.6466 0 0 0 27.091,0 z" fill="#e6e6e6" id="svg_7"/><rect x="167.5083465576172" y="82.48130798339844" width="364.5470275878906" height="10.182880401611328" fill="#e6e6e6" id="svg_8"/><rect x="167.5083465576172" y="154.7797393798828" width="364.5470275878906" height="10.182880401611328" fill="#e6e6e6" id="svg_9"/><rect x="167.5083465576172" y="227.07818603515625" width="364.5470275878906" height="10.182880401611328" fill="#e6e6e6" id="svg_10"/><circle cx="470.9580993652344" cy="197.54783630371094" r="20.365760803222656" fill="#e6e6e6" id="svg_11"/><circle cx="470.9580993652344" cy="197.54783630371094" r="16.292600631713867" fill="#fff" id="svg_12"/><circle cx="470.9580993652344" cy="197.54783630371094" r="4.073150157928467" fill="#e6e6e6" id="svg_13"/><rect x="1369.9927368164062" y="-188.44454956054688" width="2.0365800857543945" height="16.292600631713867" transform="rotate(90 735.1163940429688,-438.34680175781244) " fill="#e6e6e6" id="svg_14"/><rect x="1729.5096435546875" y="687.1694488525391" width="2.0365800857543945" height="16.292600631713867" transform="rotate(180 1100.7430419921875,443.3769226074219) " fill="#e6e6e6" id="svg_15"/><rect x="339.7254333496094" y="105.10420989990234" width="13.47506046295166" height="53.33877944946289" fill="#e6e6e6" id="svg_16"/><rect x="339.7254333496094" y="113.526123046875" width="13.47506046295166" height="6.176070213317871" fill="#ccc" id="svg_17"/><rect x="339.7254333496094" y="140.4762420654297" width="13.47506046295166" height="6.176070213317871" fill="#ccc" id="svg_18"/><rect x="318.9513854980469" y="105.10420989990234" width="13.47506046295166" height="53.33877944946289" fill="#e6e6e6" id="svg_19"/><rect x="318.9513854980469" y="113.526123046875" width="13.47506046295166" height="6.176070213317871" fill="#ccc" id="svg_20"/><rect x="318.9513854980469" y="140.4762420654297" width="13.47506046295166" height="6.176070213317871" fill="#ccc" id="svg_21"/><rect x="333.5236358642578" y="359.9704895019531" width="13.47506046295166" height="53.33877944946289" transform="rotate(-26.339599609375 -189.1714324951172,194.36555480957034) " fill="#e6e6e6" id="svg_22"/><rect x="332.12705993652344" y="365.57147216796875" width="13.47506046295166" height="6.176070213317871" transform="rotate(-26.339599609375 -183.84193420410153,189.9707794189453) " fill="#ccc" id="svg_23"/><rect x="334.6099090576172" y="397.53656005859375" width="13.47506046295166" height="6.176070213317871" transform="rotate(-26.339599609375 -193.31660461425778,197.7837066650391) " fill="#ccc" id="svg_24"/><rect x="219.56747436523438" y="177.4026336669922" width="13.47506046295166" height="53.33877944946289" fill="#e6e6e6" id="svg_25"/><rect x="219.56747436523438" y="185.82455444335938" width="13.47506046295166" height="6.176070213317871" fill="#ccc" id="svg_26"/><rect x="219.56747436523438" y="212.77467346191406" width="13.47506046295166" height="6.176070213317871" fill="#ccc" id="svg_27"/><rect x="198.79342651367188" y="177.4026336669922" width="13.47506046295166" height="53.33877944946289" fill="#e6e6e6" id="svg_28"/><rect x="198.79342651367188" y="185.82455444335938" width="13.47506046295166" height="6.176070213317871" fill="#ccc" id="svg_29"/><rect x="198.79342651367188" y="212.77467346191406" width="13.47506046295166" height="6.176070213317871" fill="#ccc" id="svg_30"/><rect x="168.81271362304688" y="386.4619598388672" width="13.47506046295166" height="53.33877944946289" transform="rotate(-26.339599609375 -233.72439575195318,148.55859375000003) " fill="#e6e6e6" id="svg_31"/><rect x="167.41610717773438" y="392.0629577636719" width="13.47506046295166" height="6.176070213317871" transform="rotate(-26.339599609375 -228.39489746093741,144.16383361816406) " fill="#ccc" id="svg_32"/><rect x="169.8989715576172" y="424.0280303955078" width="13.47506046295166" height="6.176070213317871" transform="rotate(-26.339599609375 -237.86955261230463,151.9767608642578) " fill="#ccc" id="svg_33"/><rect x="345.8351745605469" y="177.4026336669922" width="13.47506046295166" height="53.33877944946289" fill="#e6e6e6" id="svg_34"/><rect x="345.8351745605469" y="185.82455444335938" width="13.47506046295166" height="6.176070213317871" fill="#ccc" id="svg_35"/><rect x="345.8351745605469" y="212.77467346191406" width="13.47506046295166" height="6.176070213317871" fill="#ccc" id="svg_36"/><rect x="325.0611267089844" y="177.4026336669922" width="13.47506046295166" height="53.33877944946289" fill="#e6e6e6" id="svg_37"/><rect x="325.0611267089844" y="185.82455444335938" width="13.47506046295166" height="6.176070213317871" fill="#ccc" id="svg_38"/><rect x="325.0611267089844" y="212.77467346191406" width="13.47506046295166" height="6.176070213317871" fill="#ccc" id="svg_39"/><rect x="308.1895446777344" y="442.48577880859375" width="13.47506046295166" height="53.33877944946289" transform="rotate(-26.339599609375 -220.61526489257818,204.58241271972656) " fill="#e6e6e6" id="svg_40"/><rect x="306.79290771484375" y="448.0867614746094" width="13.47506046295166" height="6.176070213317871" transform="rotate(-26.339599609375 -215.28576660156256,200.18763732910153) " fill="#ccc" id="svg_41"/><rect x="309.2757568359375" y="480.0518341064453" width="13.47506046295166" height="6.176070213317871" transform="rotate(-26.339599609375 -224.76043701171878,208.00056457519534) " fill="#ccc" id="svg_42"/><rect x="449.98736572265625" y="32.64567184448242" width="53.555938720703125" height="53.555938720703125" fill="#e6e6e6" id="svg_43"/><rect x="460.69854736328125" y="43.35686111450195" width="32.13357162475586" height="32.13357162475586" fill="#ccc" id="svg_44"/><polygon points="470 54.143 476.814 65.944 483.627 77.745 470 77.745 456.373 77.745 463.187 65.944 470 54.143" fill="#e6e6e6" id="svg_45"/><polygon points="481.839 56.398 488.653 68.199 495.466 80 481.839 80 468.212 80 475.026 68.199 481.839 56.398" fill="#e6e6e6" id="svg_46"/><circle cx="486.63092041015625" cy="48.99433135986328" r="3.946229934692383" fill="#e6e6e6" id="svg_47"/><rect x="179.12281799316406" y="32.64567184448242" width="53.555938720703125" height="53.555938720703125" fill="#e6e6e6" id="svg_48"/><rect x="189.83401489257812" y="43.35686111450195" width="32.13357162475586" height="32.13357162475586" fill="#ccc" id="svg_49"/><polygon points="199.136 54.143 205.949 65.944 212.763 77.745 199.136 77.745 185.509 77.745 192.322 65.944 199.136 54.143" fill="#e6e6e6" id="svg_50"/><polygon points="210.975 56.398 217.788 68.199 224.601 80 210.975 80 197.348 80 204.161 68.199 210.975 56.398" fill="#e6e6e6" id="svg_51"/><circle cx="215.766357421875" cy="48.99433135986328" r="3.946229934692383" fill="#e6e6e6" id="svg_52"/><path d="M71.49740725585937,397.8447190222168 l3.46953,-5.362 a80.3871,80.3871 0 0 0 -3.55953,-8.33251 l-2.24351,1.812 l1.7764199999999999,-2.74534 c-1.6929400000000001,-3.3325 -3.02505,-5.43215 -3.02505,-5.43215 s-6.95827,10.96511 -9.283,22.57466 l4.45222,6.88072 l-4.92881,-3.981 a32.52438,32.52438 0 0 0 -0.27041000000000004,4.0782 c0,13.74959 4.49057,24.89583 10.03,24.89583 s10.03,-11.14624 10.03,-24.89583 a42.818,42.818 0 0 0 -2.29454,-12.84723 z" fill="#6c63ff" id="svg_53"/><path d="M96.05528725585938,409.7648390222168 l6.24485,-1.3381800000000001 a80.386,80.386 0 0 0 3.375,-8.40894 l-2.8677200000000003,-0.3050800000000001 l3.19737,-0.6851400000000002 c1.15934,-3.55352 1.70208,-5.9801400000000005 1.70208,-5.9801400000000005 s-12.67374,2.83326 -22.52676,9.39864 l-1.7172100000000001,8.01359 l-0.6702200000000001,-6.30016 a32.52414,32.52414 0 0 0 -3.07493,2.69252 c-9.72243,9.72242 -14.4287,20.77932 -10.51175,24.69627 s14.97385,-0.78932 24.69628,-10.51174 a42.818,42.818 0 0 0 7.46188,-10.70686 z" fill="#24a3dd" id="svg_54" class="" fill-opacity="1"/><path d="M98.33627725585939,462.96876902221675 c-14.48118,0.92631 -30.25994,-0.053870000000000015 -47.04589,0 V424.5369190222168 c14.79122,2.30262 30.56472,2.06615 47.04589,0 z" fill="#3f3d56" id="svg_55"/><rect x="500.9975891113281" y="475.03125" width="195.51126098632812" height="253.5536651611328" fill="#e6e6e6" id="svg_56"/><rect x="92.66419219970703" y="488.2690124511719" width="10.182880401611328" height="240.31591796875" fill="#e6e6e6" id="svg_57"/><rect y="457.7203674316406" width="696.5088500976562" height="20.365760803222656" fill="#e6e6e6" id="svg_58"/><rect x="87.57274627685547" y="478.08612060546875" width="20.365760803222656" height="20.365760803222656" fill="#e6e6e6" id="svg_59"/><polygon points="614.155 489.796 613.009 494.379 584.497 494.379 582.779 489.796 510.162 489.796 510.162 536.638 687.344 536.638 687.344 489.796 614.155 489.796" fill="#3f3d56" id="svg_60" class=""/><polygon points="614.155 548.857 613.009 553.439 584.497 553.439 582.779 548.857 510.162 548.857 510.162 595.698 687.344 595.698 687.344 548.857 614.155 548.857" fill="#3f3d56" id="svg_61"/><polygon points="614.155 607.918 613.009 612.5 584.497 612.5 582.779 607.918 510.162 607.918 510.162 654.759 687.344 654.759 687.344 607.918 614.155 607.918" fill="#3f3d56" id="svg_62"/><polygon points="614.155 666.979 613.009 671.561 584.497 671.561 582.779 666.979 510.162 666.979 510.162 713.82 687.344 713.82 687.344 666.979 614.155 666.979" fill="#3f3d56" id="svg_63"/><polygon points="377.785 454.665 317.706 454.665 319.742 428.19 375.748 428.19 377.785 454.665" fill="#e6e6e6" id="svg_64"/><rect x="314.65093994140625" y="451.6106262207031" width="67.20699310302734" height="6.109729766845703" fill="#e6e6e6" id="svg_65"/><path d="M462.8118072558593,257.6268090222168 H233.1879072558594 a6.10973,6.10973 0 0 0 -6.10973,6.10973 V403.7511090222168 H468.92152725585936 V263.7365390222168 A6.10973,6.10973 0 0 0 462.8118072558593,257.6268090222168 z" fill="#3f3d56" id="svg_66"/><path d="M227.07818725585935,403.7511090222168 V426.6625790222168 a6.10973,6.10973 0 0 0 6.10973,6.10973 h229.6239 a6.10973,6.10973 0 0 0 6.10972,-6.10973 V403.7511090222168 z" fill="#e6e6e6" id="svg_67"/><rect x="239.29762268066406" y="270.35540771484375" width="217.91358947753906" height="122.19452667236328" fill="#fff" id="svg_68"/><circle cx="348.2544250488281" cy="418.00714111328125" r="6.109729766845703" fill="#3f3d56" id="svg_69"/><path d="M865.0354772558594,727.0574790222169 c-22.25416,1.4235200000000001 -46.50239,-0.08278000000000002 -72.29843,0 V667.9967890222168 c22.73061,3.53859 46.97076,3.17519 72.29843,0 z" fill="#3f3d56" id="svg_70"/><polygon points="831.432 673.3 825.322 673.3 827.359 553.949 829.395 553.949 831.432 673.3" fill="#3f3d56" id="svg_71"/><polygon points="858.926 674.107 852.816 674.107 854.853 554.755 856.889 554.755 858.926 674.107" fill="#3f3d56" id="svg_72"/><polygon points="806.993 674.107 800.883 674.107 802.92 554.755 804.956 554.755 806.993 674.107" fill="#3f3d56" id="svg_73"/><path d="M836.5234172558594,477.57696902221676 l9.8628,-15.24249 a228.51376,228.51376 0 0 0 -10.11861,-23.68669 l-6.3776,5.1511 l5.0498,-7.8041599999999995 c-4.81251,-9.47323 -8.59926,-15.44187 -8.59926,-15.44187 s-19.78017,31.17033 -26.3886,64.17264 L812.6081872558593,504.2852090222168 l-14.011,-11.31664 a92.45186,92.45186 0 0 0 -0.7686900000000002,11.593 c0,39.08574 12.765270000000001,70.771 28.512059999999998,70.771 s28.512,-31.68526 28.512,-70.771 c0,-12.117 -2.7412400000000003,-24.794 -6.52266,-36.52063 z" fill="#e6e6e6" id="svg_74"/><path d="M864.0171872558594,479.61354902221683 l9.8628,-15.2425 a228.5147,228.5147 0 0 0 -10.11861,-23.68669 l-6.3776,5.15111 l5.0498,-7.8041599999999995 c-4.81251,-9.47323 -8.59926,-15.44188 -8.59926,-15.44188 s-19.78017,31.17034 -26.3886,64.17264 l12.65626,19.55972 l-14.011,-11.31664 a92.45186,92.45186 0 0 0 -0.7686900000000002,11.593 c0,39.08574 12.765270000000001,70.771 28.512059999999998,70.771 s28.512059999999998,-31.68526 28.512059999999998,-70.771 c0,-12.117 -2.74125,-24.794 -6.52267,-36.52064 z" fill="#24a3dd" id="svg_75" class="" fill-opacity="1"/><path d="M812.0845172558594,479.61354902221683 l9.8628,-15.2425 a228.51678,228.51678 0 0 0 -10.11862,-23.68669 l-6.3776,5.15111 l5.0498,-7.8041599999999995 c-4.8125,-9.47323 -8.59926,-15.44188 -8.59926,-15.44188 s-19.78017,31.17034 -26.3886,64.17264 l12.65626,19.55972 l-14.011,-11.31664 a92.45186,92.45186 0 0 0 -0.7686900000000002,11.593 c0,39.08574 12.765270000000001,70.771 28.512059999999998,70.771 s28.512059999999998,-31.68526 28.512059999999998,-70.771 c0,-12.117 -2.74125,-24.794 -6.52266,-36.52064 z" fill="#e95312" id="svg_76" class="" fill-opacity="1"/><rect x="309.9639587402344" y="304.84783935546875" width="58.756160736083984" height="3.3728299140930176" fill="#3f3d56" id="svg_77"/><rect x="309.9639587402344" y="317.1509704589844" width="90.7322998046875" height="3.3728299140930176" fill="#24a3dd" id="svg_78" class="" fill-opacity="1"/><rect x="309.9639587402344" y="328.7423400878906" width="73.94481658935547" height="3.3728299140930176" fill="#6c63ff" id="svg_79" class=""/><rect x="309.9639587402344" y="340.2898864746094" width="43.167789459228516" height="3.3728299140930176" fill="#3f3d56" id="svg_80"/><rect x="309.9639587402344" y="351.8374328613281" width="65.1513900756836" height="3.3728299140930176" fill="#3f3d56" id="svg_81"/><rect x="283.1839294433594" y="303.64874267578125" width="7.194630146026611" height="7.194630146026611" fill="#3f3d56" id="svg_82"/><rect x="283.1839294433594" y="315.2400817871094" width="7.194630146026611" height="7.194630146026611" fill="#6c63ff" id="svg_83"/><rect x="283.1839294433594" y="326.8314208984375" width="7.194630146026611" height="7.194630146026611" fill="#6c63ff" id="svg_84"/><rect x="283.1839294433594" y="338.42279052734375" width="7.194630146026611" height="7.194630146026611" fill="#3f3d56" id="svg_85"/><rect x="283.1839294433594" y="350.0141296386719" width="7.194630146026611" height="7.194630146026611" fill="#3f3d56" id="svg_86"/><path d="M447.1153472558593,298.4626290222168 H416.2821872558594 a107.84044,107.84044 0 0 1 0,-36.76267 h30.8332 A66.14839,66.14839 0 0 0 447.1153472558593,298.4626290222168 z" fill="#e95312" id="svg_87" class="" fill-opacity="1"/><path d="M222.76389725585938,372.1444690222168 l-12.68484,-3.092 a32.65651,32.65651 0 0 1 -32.05067,-39.12409 v0 a42.68467,42.68467 0 0 1 42.631,-42.73825 h0.00008000000000000003 a42.68468,42.68468 0 0 1 42.73825,42.631 v0.00006000000000000002 C270.5899272558594,354.8494190222168 248.06426725585936,378.3116590222168 222.76389725585938,372.1444690222168 z" fill="#2f2e41" id="svg_88"/><circle cx="236.61973571777344" cy="345.24334716796875" r="31.363689422607422" fill="#ffb8b8" id="svg_89"/><path d="M216.1651872558594,361.6070090222168 s-9.54547,32.72733 -15,35.4546 s43.63644,6.8182 43.63644,6.8182 s-1.36364,-31.36369 1.36364,-34.091 S216.1651872558594,361.6070090222168 216.1651872558594,361.6070090222168 z" fill="#ffb8b8" id="svg_90"/><path d="M265.2561872558594,563.4255390222168 s61.36374,-5.45456 69.54557,15 S329.34718725585935,720.2439890222169 329.34718725585935,720.2439890222169 H303.4380372558594 V620.6983590222168 s-110.4725,-31.40179 -110.4725,-42.31089 S265.2561872558594,563.4255390222168 265.2561872558594,563.4255390222168 z" fill="#2f2e41" id="svg_91"/><path d="M325.2562572558594,714.7894290222168 l13.63639,5.45456 s16.36366,-1.36364 9.54547,10.90911 A27.00366,27.00366 0 0 1 329.34718725585935,744.7894890222168 s-25.90914,9.54547 -27.27278,0 s6.8182,-28.63642 6.8182,-28.63642 z" fill="#2f2e41" id="svg_92"/><path d="M231.1651872558594,563.4255390222168 s61.36374,-5.45456 69.54557,15 S295.2561872558594,720.2439890222169 295.2561872558594,720.2439890222169 H269.3470672558594 V620.6983590222168 s-78.4181,-18.164 -78.4181,-29.07315 c0,-5.12492 -5.3434800000000005,-31.171 4.07315,-36.65836 C205.63011725585937,548.7735990222168 231.1651872558594,563.4255390222168 231.1651872558594,563.4255390222168 z" fill="#2f2e41" id="svg_93"/><path d="M291.16528725585937,714.7894290222168 l13.63639,5.45456 s16.36367,-1.36364 9.54547,10.90911 A27.00366,27.00366 0 0 1 295.2561872558594,744.7894890222168 s-25.90914,9.54547 -27.27277,0 s6.81819,-28.63642 6.81819,-28.63642 z" fill="#2f2e41" id="svg_94"/><path d="M202.52877725585938,392.9706990222168 l40.98018,4.45436 a30.18224,30.18224 0 0 1 26.26893,23.76669 L285.7107372558594,496.60727902221674 s5.45455,75.00013 -5.45456,79.091 s-25.90913,-16.36366 -46.36371,-13.63638 s-47.04554,8.86365 -47.04554,8.86365 S182.6241872558594,436.67827902221677 182.07418725585939,425.6980290222168 C180.97460725585938,403.7469690222168 202.52877725585938,392.9706990222168 202.52877725585938,392.9706990222168 z" fill="#e95312" id="svg_95" class="" fill-opacity="1"/><path d="M299.60051725585936,567.3218290222168 l16.82365,9.9078 s30.18279,-4.33064 29.24058,6.2780000000000005 s-33.8887,8.55886 -33.8887,8.55886 l-20.275,-12.493 z" fill="#ffb8b8" id="svg_96"/><circle cx="175.74290466308594" cy="299.47503662109375" r="20.259660720825195" fill="#2f2e41" id="svg_97"/><path d="M194.43611725585936,288.58398902221677 a20.2502,20.2502 0 0 0 -24.24652,-19.836 a20.25023,20.25023 0 1 1 12.63025,38.16451 A20.243,20.243 0 0 0 194.43611725585936,288.58398902221677 z" fill="#2f2e41" id="svg_98"/><path d="M211.81665725585935,300.0739890222168 l27.313,-5.02907 l21.00491,13.16494 a31.86273,31.86273 0 0 1 14.6776,31.09515 l-21.0372,-5.33225 l-4.71074,-11.81208 l-5.61047,9.196 l-29.33406,37.75029 l-16.46978,-10.48815 l-14.68292,-23.00931 z" fill="#2f2e41" id="svg_99"/><path d="M234.3088772558594,404.5705090222168 l13.63639,-6.8182 s28.63641,4.09092 34.091,23.18186 s30,151.3639 30,151.3639 L288.8544272558594,583.2071790222168 l-32.72733,-80.45468 z" fill="#bc4414" id="svg_100" class="" fill-opacity="1"/><polygon points="245.917 458.23 259.565 511.205 283.767 570.701 282.928 572.761 254.063 512.199 245.917 458.23" opacity="0.2" id="svg_101"/><polygon points="144.084 750.379 139.271 748.721 185.896 610.231 192.636 612.553 144.084 750.379" fill="#3f3d56" id="svg_102"/><polygon points="322.291 750.379 327.105 748.721 280.479 610.231 273.74 612.553 322.291 750.379" fill="#3f3d56" id="svg_103"/><polygon points="223.77 778.981 228.861 778.999 230.443 617.107 223.315 617.082 223.77 778.981" fill="#3f3d56" id="svg_104"/><path d="M132.29973725585938,528.8563690222168 l13.96582,56.44513 a44.82625,44.82625 0 0 0 32.64214,32.72145 l0.00008000000000000003,0 a238.26046,238.26046 0 0 0 118.54694,-0.7638000000000001 l20.8512,-5.49922 c12.11558,-3.19531 21.22652,-13.60111 22.0886,-26.10127 a25.68469,25.68469 0 0 0 -2.323,-12.8718 q-0.12219000000000002,-0.25966 -0.24559000000000003,-0.51476 a34.06444,34.06444 0 0 0 -29.59817,-19.13845 l-22.08892,-0.7125400000000001 L205.6941872558594,516.7810490222168 s-27.66705,-14.0531 -50.4117,-15.626290000000001 C140.2617072558594,500.1158190222168 128.68342725585939,514.2404890222168 132.29973725585938,528.8563690222168 z" fill="#24a3dd" id="svg_105" class="selected" fill-opacity="1"/><rect x="543.2565307617188" y="351.3092956542969" width="79.42645263671875" height="107.93850708007812" fill="#e6e6e6" id="svg_106"/><rect x="552.421142578125" y="363.76373291015625" width="61.09727096557617" height="83.02961730957031" fill="#fff" id="svg_107"/><rect x="576.4673461914062" y="385.49176025390625" width="29.601980209350586" height="3.3728299140930176" fill="#3f3d56" id="svg_108"/><rect x="559.8701782226562" y="383.6246643066406" width="7.194630146026611" height="7.194630146026611" fill="#3f3d56" id="svg_109"/><rect x="576.4673461914062" y="399.747802734375" width="29.601980209350586" height="3.3728299140930176" fill="#3f3d56" id="svg_110"/><rect x="559.8701782226562" y="397.88067626953125" width="7.194630146026611" height="7.194630146026611" fill="#3f3d56" id="svg_111"/><rect x="576.4673461914062" y="414.0038146972656" width="29.601980209350586" height="3.3728299140930176" fill="#3f3d56" id="svg_112"/><rect x="559.8701782226562" y="412.13671875" width="7.194630146026611" height="7.194630146026611" fill="#3f3d56" id="svg_113"/><rect x="579.9149169921875" y="354.3641357421875" width="6.109729766845703" height="6.109729766845703" rx="3.0548601150512695" fill="#3f3d56" id="svg_114"/></g></svg>