<?xml version="1.0" encoding="utf-8"?>
<!-- Generator: Adobe Illustrator 25.2.0, SVG Export Plug-In . SVG Version: 6.00 Build 0)  -->
<svg version="1.1" id="Calque_1" xmlns="http://www.w3.org/2000/svg" xmlns:xlink="http://www.w3.org/1999/xlink" x="0px" y="0px"
	 viewBox="0 0 280.82 156.85" style="enable-background:new 0 0 280.82 156.85;" xml:space="preserve">
<style type="text/css">
	.st0{fill:#E95314;}
	.st1{fill:#29A3DD;}
</style>
<path class="st0" d="M108.17,48.95v17.3l19.71,12.26l11.61-8.54c0,0,0-1.58-2.85-3.5L108.17,48.95z"/>
<path class="st1" d="M108.41,107.71V89.53l31.09-19.55l0.23,17.09c0,0,0.16,0.64-2.32,2.24L108.41,107.71z"/>
<path class="st0" d="M141.09,49.14v17.3l19.71,12.26l11.61-8.54c0,0,0-1.58-2.85-3.5L141.09,49.14z"/>
<path class="st1" d="M141.33,107.9V89.72l31.09-19.55l0.23,17.09c0,0,0.16,0.64-2.32,2.24L141.33,107.9z"/>
</svg>
