<svg xmlns="http://www.w3.org/2000/svg" viewBox="0 0 2684.6 1832.25"><defs><style>.cls-1{isolation:isolate;}.cls-2{fill:#d4deff;}.cls-3{fill:#fff;}.cls-4{fill:#e3eaff;}.cls-5{fill:#29a3dd;}.cls-6{fill:#3f964f;}.cls-7{fill:#4ead60;}.cls-8{fill:#193f1e;opacity:0.2;mix-blend-mode:color-burn;}.cls-9{fill:#2c2858;}.cls-10{fill:#0e6a41;}.cls-11{fill:#201d40;}.cls-12{fill:#c4204a;}.cls-13{fill:#e62552;}.cls-14{fill:#f37a50;}.cls-15{fill:#de623c;}.cls-16{fill:#020205;}.cls-17{fill:#faba23;}.cls-18{fill:#fad332;}.cls-19{fill:#95a6db;}.cls-20{fill:#faee6c;}.cls-21{fill:#e95314;}.cls-22{fill:#f9cd2d;}.cls-23{fill:#f9f93a;}.cls-24{fill:#d6224c;}.cls-25{fill:#fac832;}</style></defs><g class="cls-1"><g id="Слой_1" data-name="Слой 1"><circle class="cls-2" cx="582.52" cy="251.28" r="81.41"/><path class="cls-3" d="M659.67,369.2,653.41,355c-8.21,3.45-17.75,4.64-24.22,3.29l-.77-10.9a41,41,0,0,0,22.89-2.87c10-4.39,14.19-13.13,10.66-21.14-3.4-7.72-11-10.09-23.24-9.72-16.81.69-28.51-1.88-33.89-14.1-5.14-11.66-.75-24.17,11.25-32l-6.25-14.19,8.71-3.84,6,13.63c8.56-3.43,15.31-3.72,20.44-3.12l.57,10.82a37.08,37.08,0,0,0-19.81,3c-10.82,4.76-12,13-9.57,18.64,3.21,7.31,10,8.67,24.48,8.35,17.07-.48,27.59,3.61,33.1,16.12,4.89,11.1,1.74,24.9-11.68,33.66l6.44,14.62Z" transform="translate(-56.52 -58.14)"/><path class="cls-2" d="M403.36,734.08l-68.68-77.14s25.26-54.15,99.43-56.07c46-1.19,86.59-47.54,86.59-47.54l69,77.55s-44.68,63.55-97.26,64C436.88,695.41,403.36,734.08,403.36,734.08Z" transform="translate(-56.52 -58.14)"/><path class="cls-4" d="M501.51,627.6c7.2,19.87-5.75,42.79-28.93,51.19s-47.82-.89-55-20.76,5.75-42.79,28.93-51.19S494.3,607.73,501.51,627.6Z" transform="translate(-56.52 -58.14)"/><path class="cls-2" d="M2551.19,821.89,2518,724.09s-59.56-4.74-97.83,58.82c-23.72,39.41-84.07,51.86-84.07,51.86l33.39,98.32s77.32-7.5,103.68-53C2501,832,2551.19,821.89,2551.19,821.89Z" transform="translate(-56.52 -58.14)"/><path class="cls-4" d="M2410.15,854.72c13.73,16.07,40,16.11,58.8.09s22.81-42,9.08-58.09-40.05-16.11-58.8-.1S2396.42,838.65,2410.15,854.72Z" transform="translate(-56.52 -58.14)"/><path class="cls-4" d="M2517.15,1890.39c116-185.06,235.56-333.1,223.07-595.43-10.71-224.81-264.49-289.74-331.87-385.39-82.46-117.08,14.27-339-132-538.84-160.23-218.84-416.92-214-628.05-103.49C1494.09,348,1335.8,375.76,1180.8,327.91,918.84,247,559.89,224.42,524.21,545.58,499.39,768.91,377.9,838.2,185.2,988.07c-259.93,202.17-62.12,601.85,38.08,884.32Z" transform="translate(-56.52 -58.14)"/><rect class="cls-5" x="23.77" y="1805.84" width="2448.92" height="26.41" rx="12.06"/><path class="cls-3" d="M1610.43,892.77A82.41,82.41,0,1,1,1508.1,837,82.42,82.42,0,0,1,1610.43,892.77Z" transform="translate(-56.52 -58.14)"/><path class="cls-4" d="M1544.32,978.74l-4.43-15.06c-8.69,2.4-18.43,2.35-24.74.16l.63-11a41.41,41.41,0,0,0,23.36.09c10.59-3.12,15.94-11.34,13.44-19.84-2.41-8.2-9.72-11.55-22.07-12.78-17-1.48-28.37-5.58-32.19-18.55-3.65-12.37,2.38-24.36,15.44-30.63L1509.33,856l9.24-2.72,4.26,14.46c9-2.34,15.85-1.75,20.92-.49l-.83,10.94a37.54,37.54,0,0,0-20.28.46c-11.48,3.38-13.78,11.51-12,17.48,2.28,7.75,8.94,10,23.49,11.55,17.2,1.74,27.24,7.21,31.15,20.48,3.46,11.78-1.49,25.23-16.1,32.28l4.57,15.51Z" transform="translate(-56.52 -58.14)"/><polygon class="cls-6" points="1369.13 1029.53 1269.63 1100.06 956.77 1321.85 924.37 1344.81 949.03 1379.9 1085.84 1574.57 1325.08 1404.63 1446.87 1318.12 1448.31 1317.11 1460.64 1159.75 1369.13 1029.53"/><path class="cls-7" d="M1498.67,1273.8l-62-88.14a47.27,47.27,0,0,1-65.85-11.49l-290,206.54a47.27,47.27,0,0,1-11.49,65.86l61.94,88.14a47.28,47.28,0,0,1,65.86,11.49l290-206.54A47.27,47.27,0,0,1,1498.67,1273.8Z" transform="translate(-56.52 -58.14)"/><path class="cls-6" d="M1361.26,1309a78.47,78.47,0,1,0-19.08,109.33A78.47,78.47,0,0,0,1361.26,1309Z" transform="translate(-56.52 -58.14)"/><polygon class="cls-6" points="1460.64 1159.75 1372.07 1244.45 1446.87 1318.12 1448.13 1319.36 1448.31 1317.11 1460.64 1159.75"/><polygon class="cls-8" points="1415.63 1340.08 1372.07 1244.45 1446.87 1318.12 1415.63 1340.08"/><polygon class="cls-8" points="1460.64 1159.75 1372.07 1244.45 1454.57 1151.12 1460.64 1159.75"/><path class="cls-8" d="M1326.15,1158.2,1013.29,1380l-7.74,58,136.81,194.67,239.24-169.94-12.22-46.28c-4.62-17.49-35.62-25.22-74.88-20.79Z" transform="translate(-56.52 -58.14)"/><rect class="cls-6" x="816.79" y="1201.34" width="655.75" height="280.82" transform="translate(-393.07 2240.96) rotate(-82.41)"/><path class="cls-7" d="M1235.13,1070.73l-106.78-14.23a47.28,47.28,0,0,1-53.1,40.61l-61.67,462.55a47.28,47.28,0,0,1,40.62,53.11L1161,1627a47.28,47.28,0,0,1,53.1-40.62l61.66-462.54A47.28,47.28,0,0,1,1235.13,1070.73Z" transform="translate(-56.52 -58.14)"/><circle class="cls-6" cx="1149.78" cy="1344.57" r="78.48" transform="translate(-453.14 2145.8) rotate(-78.53)"/><path class="cls-6" d="M1244.51,1418.21,977.05,1488.8l71.66,271.52,267.46-70.59-50.43-191.08c53.43-14.31,91.91-43.65,86.08-65.74s-53.78-28.62-107.31-14.7Z" transform="translate(-56.52 -58.14)"/><rect class="cls-7" x="1127.54" y="1412.75" width="197.58" height="310.94" transform="translate(-33.55 3096) rotate(-104.78)"/><circle class="cls-6" cx="1209.02" cy="1572.79" r="70.1" transform="translate(-717.39 852.15) rotate(-32.94)"/><path class="cls-8" d="M1244.51,1418.21l-27.4,7.22L1288.77,1697l124.1-32.75-61-231.3c-5.83-22.1-53.78-28.62-107.31-14.7Z" transform="translate(-56.52 -58.14)"/><path class="cls-6" d="M1351.82,1432.91c5.83,22.09-32.65,51.43-86.08,65.74l71.66,271.53h0c53.43-14.31,91.91-43.64,86.07-65.74Z" transform="translate(-56.52 -58.14)"/><path class="cls-7" d="M1364.75,1481.91c2.58,9.77-4,20.7-16.09,29.19,3.58,15.08-4.76,30.13-18.91,33.87l-.07,0,36.24,137.28.07,0c13-3.43,26.43,3.87,31.89,16.6,12.26-8.51,19-19.54,16.37-29.39Z" transform="translate(-56.52 -58.14)"/><path class="cls-9" d="M1033.68,1863.26l-393.49.25a112.36,112.36,0,0,1-112.44-112.3l-.61-962.91a112.37,112.37,0,0,1,112.3-112.45l393.48-.25a112.37,112.37,0,0,1,112.45,112.31l.61,962.9A112.37,112.37,0,0,1,1033.68,1863.26Z" transform="translate(-56.52 -58.14)"/><path class="cls-5" d="M1037.73,1844l-401.62.26a79,79,0,0,1-79.07-79l-.62-984a79,79,0,0,1,79-79.07L1037,702a79,79,0,0,1,79.07,79l.62,984A79,79,0,0,1,1037.73,1844Z" transform="translate(-56.52 -58.14)"/><path class="cls-9" d="M523.5,990.69h0A17.54,17.54,0,0,1,506,973.15v-90.9a17.54,17.54,0,0,1,17.54-17.54h0A17.53,17.53,0,0,1,541,882.25v90.9A17.53,17.53,0,0,1,523.5,990.69Z" transform="translate(-56.52 -58.14)"/><path class="cls-9" d="M1148.74,990.69h0a17.54,17.54,0,0,1-17.54-17.54v-90.9a17.54,17.54,0,0,1,17.54-17.54h0a17.53,17.53,0,0,1,17.53,17.54v90.9A17.53,17.53,0,0,1,1148.74,990.69Z" transform="translate(-56.52 -58.14)"/><path class="cls-9" d="M2098.53,1863.26l-393.48.25a112.38,112.38,0,0,1-112.45-112.3L1592,788.3A112.37,112.37,0,0,1,1704.3,675.85l393.48-.25a112.38,112.38,0,0,1,112.45,112.31l.61,962.9A112.37,112.37,0,0,1,2098.53,1863.26Z" transform="translate(-56.52 -58.14)"/><path class="cls-5" d="M2102.59,1844l-401.62.26a79,79,0,0,1-79.07-79l-.62-984a79,79,0,0,1,79-79.07l401.62-.25a79,79,0,0,1,79.07,79l.62,984A79,79,0,0,1,2102.59,1844Z" transform="translate(-56.52 -58.14)"/><path class="cls-9" d="M1588.35,990.69h0a17.53,17.53,0,0,1-17.53-17.54v-90.9a17.53,17.53,0,0,1,17.53-17.54h0a17.54,17.54,0,0,1,17.54,17.54v90.9A17.54,17.54,0,0,1,1588.35,990.69Z" transform="translate(-56.52 -58.14)"/><path class="cls-9" d="M2213.6,990.69h0a17.54,17.54,0,0,1-17.54-17.54v-90.9a17.54,17.54,0,0,1,17.54-17.54h0a17.53,17.53,0,0,1,17.53,17.54v90.9A17.53,17.53,0,0,1,2213.6,990.69Z" transform="translate(-56.52 -58.14)"/><path class="cls-9" d="M1588.35,1125.16h0a17.53,17.53,0,0,1-17.53-17.53v-90.91a17.53,17.53,0,0,1,17.53-17.53h0a17.53,17.53,0,0,1,17.54,17.53v90.91A17.53,17.53,0,0,1,1588.35,1125.16Z" transform="translate(-56.52 -58.14)"/><path class="cls-10" d="M342.67,1802.06c-13.22,55.52-60.48,25-50.59,60.07a6.27,6.27,0,0,0,5.87,4.42l27.75,1.07a12.55,12.55,0,0,0,7.53-2.18c14.64-10,24.57-24.14,56.19-25.86-.24-13.49.37-32.77-4.09-39.66Z" transform="translate(-56.52 -58.14)"/><path class="cls-11" d="M415.8,1412.48S335.1,1535.56,324,1573.85s12.16,103.16,7.94,233.91c25.23,6.54,58.86.92,58.86.92s20.24-164-3.57-202.72c35.68-54.44,125.28-173.28,125.28-173.28Z" transform="translate(-56.52 -58.14)"/><path class="cls-10" d="M460.55,1820c-20.53,28-71.79,11.42-69.73,48.94,77.69-1.24,110-1.07,110-1.07-.18-8.62-1.92-29.07-3.79-37.06Z" transform="translate(-56.52 -58.14)"/><path class="cls-9" d="M436.48,1387.6s-25.73,200.81-19.79,240.24,24.34,70.29,25,201.1c25.45,5.61,64.34,10.64,64.34,10.64s16.4-157.77-17.33-201.21c9.56-64.38,55.12-226.3,55.12-226.3Z" transform="translate(-56.52 -58.14)"/><path class="cls-12" d="M304.65,1299.19,273.27,1264a3.63,3.63,0,0,0-2.67-1.21l-25.83-.16c-.74,0-3,4.07-2.52,4.62l22.13,19.66a.73.73,0,0,0,.38.24l37.95,14.08C303.52,1301.49,305.22,1299.83,304.65,1299.19Z" transform="translate(-56.52 -58.14)"/><path class="cls-13" d="M302.25,1301.55l-29.89-33.17a3.67,3.67,0,0,0-2.67-1.21l-26.63-.48a.84.84,0,0,0-.64,1.4l21.05,23.21a.88.88,0,0,0,.38.24l37.53,11.38A.84.84,0,0,0,302.25,1301.55Z" transform="translate(-56.52 -58.14)"/><path class="cls-14" d="M361.31,1331.8l-21.62-10.59s-21.32-21.58-24.49-26.4c-4.74-2.4-13.71-8.45-15.73-8.68a33.1,33.1,0,0,0-6.15.4l10,11.38s-4.76.94-10.82-2.91-16.78-14.18-22-12.18l-1.87,1.65s-3.31-3.54-6.43-2.23,3.09,16.9,20.71,33.41c1.17,4.4,7,12.13,7,12.13l35.64,12.52Z" transform="translate(-56.52 -58.14)"/><path class="cls-12" d="M267.49,1273.39c1.27,1.26,3.09,1.5,4.07.52s.75-2.8-.52-4.07-3.09-1.5-4.07-.52S266.23,1272.12,267.49,1273.39Z" transform="translate(-56.52 -58.14)"/><path class="cls-14" d="M462,1172.86c-6.41,8.31,43.82,17.35,50.56.07s-4.83-64.79-4.83-64.79l-45.81,9.72S470.31,1162,462,1172.86Z" transform="translate(-56.52 -58.14)"/><ellipse class="cls-14" cx="465.44" cy="1074.84" rx="52.55" ry="66.9" transform="matrix(0.99, -0.1, 0.1, 0.99, -166.15, -3.7)"/><path d="M430.23,1091.14a5.47,5.47,0,1,1-3.3-7A5.46,5.46,0,0,1,430.23,1091.14Z" transform="translate(-56.52 -58.14)"/><path d="M466.1,1083.31a5.92,5.92,0,1,1-3.57-7.58A5.92,5.92,0,0,1,466.1,1083.31Z" transform="translate(-56.52 -58.14)"/><path class="cls-15" d="M440.68,1090c-1.16,8.61-2.77,19.21-2.77,19.21s5.66,6,15,1.84c-4.69.16-9.8-.74-10.58-6.73S440.68,1090,440.68,1090Z" transform="translate(-56.52 -58.14)"/><path class="cls-16" d="M428.63,1078.65a2.11,2.11,0,0,1-2.08,0,6.09,6.09,0,0,0-4.48-.38c-1.5.57-2.71,2-3.58,4.39a2.1,2.1,0,1,1-3.93-1.46c1.32-3.55,3.36-5.86,6.07-6.87a10.31,10.31,0,0,1,7.92.63,2.11,2.11,0,0,1,.84,2.85A2.07,2.07,0,0,1,428.63,1078.65Z" transform="translate(-56.52 -58.14)"/><path class="cls-16" d="M455.92,1072.67a2.09,2.09,0,0,0,2-.64,6.11,6.11,0,0,1,4.1-1.83c1.61,0,3.24,1,4.83,3a2.1,2.1,0,1,0,3.23-2.68c-2.41-2.91-5.1-4.43-8-4.49a10.35,10.35,0,0,0-7.27,3.21,2.1,2.1,0,0,0,1.13,3.46Z" transform="translate(-56.52 -58.14)"/><path class="cls-16" d="M507,1092.7c-19-15.92-13.76-40.24-13.76-40.24-9.22.6-11.8,4.54-11.8,4.54-7.42-8.51-5.61-16.53-5.61-16.53-20-2.17-25.84,12-41.09,20.3-20.89,11.42-50.88,9.94-60.82-16.64a4.83,4.83,0,0,1,6.11-6.25,21.31,21.31,0,0,0,13.13.28,22.74,22.74,0,0,1-8.31-11.26,4.81,4.81,0,0,1,6.71-5.69c5.69,2.61,15.29,3.94,29.88-3.08,9.71-4.66,28.7-27.35,44.15-28.08,12.62-.6,24.82,7,32.8,20.43,0,0,30.12-4.86,41.74,26.6,11.43,30.9-31.39,78.64-31.39,78.64S512,1097.59,507,1092.7Z" transform="translate(-56.52 -58.14)"/><path class="cls-3" d="M443,1125.11a1.61,1.61,0,0,1,.48-2.92,136.56,136.56,0,0,0,14.54-4.37,134.13,134.13,0,0,0,13.82-6.26,1.61,1.61,0,0,1,2.28,1.88c-1.2,4.19-4.36,11-12.46,14.09S446.67,1127.48,443,1125.11Z" transform="translate(-56.52 -58.14)"/><path class="cls-14" d="M493.44,1071.05c-6.19,6.1-7.16,15.15-2.16,20.21s14.05,4.22,20.24-1.88,7.15-15.16,2.16-20.22S499.62,1065,493.44,1071.05Z" transform="translate(-56.52 -58.14)"/><path class="cls-15" d="M499.45,1088.66a2,2,0,0,1-.74-.48c-3-3.17-3.73-7-1.89-10.38a9.15,9.15,0,0,1,9.56-4.59,1.9,1.9,0,1,1-.76,3.72,5.41,5.41,0,0,0-5.47,2.71c-1,1.85-.56,3.95,1.31,5.92a1.9,1.9,0,0,1-2,3.1Z" transform="translate(-56.52 -58.14)"/><path class="cls-6" d="M406.13,1427.22c35.83,7.31,100.25,19.93,134.32,6.65,12.89-18.51,16.16-123.18,16.16-123.18,3.72-107.74-9.2-123.73-38.33-159.83-12.23,5.62-42.84,10.41-56.29,10.52,0,0-30.49,42.33-36.44,73.06-6,31.17-6.71,86.59-7.27,118.33C417.66,1388,410.69,1405,406.13,1427.22Z" transform="translate(-56.52 -58.14)"/><path class="cls-10" d="M522.52,1183.57c21,40.8,16.21,86-44.72,174.93-42.68-3.73-51.05-39.3-51.05-39.3s11.73-44.16,27-99.71S513.35,1165.72,522.52,1183.57Z" transform="translate(-56.52 -58.14)"/><path class="cls-10" d="M336.21,1310.69l91.38,7.29s39.18-7.15,50.21,40.52c-19.62,15.27-70.25,21-153.29-9.84C333.3,1336.7,336.21,1310.69,336.21,1310.69Z" transform="translate(-56.52 -58.14)"/><polygon class="cls-3" points="405.75 1100.21 404.88 1124.79 466.7 1098.87 459.21 1078.99 405.75 1100.21"/><path class="cls-17" d="M923.67,562.89a91.2,91.2,0,1,1-47-120.13A91.2,91.2,0,0,1,923.67,562.89Z" transform="translate(-56.52 -58.14)"/><path class="cls-18" d="M908.75,556.35c-18,42.27-71.77,58-109.85,32.51a75.08,75.08,0,0,1-32.83-74c7.08-48.56,60.33-77,104.1-57.21C907.43,473.63,925.6,518.58,908.75,556.35Z" transform="translate(-56.52 -58.14)"/><path class="cls-17" d="M835,589.29l0-15.51c-8.91-.13-18.13-2.86-23.51-6.69l3.65-10.3a40.88,40.88,0,0,0,22.13,6.54c10.9,0,18.25-6.34,18.23-15.09,0-8.45-6-13.65-17.4-18.23-15.68-6.09-25.37-13.13-25.41-26.49,0-12.74,9-22.44,23.11-24.78l0-15.51,9.52,0,0,14.89c9.21.28,15.52,2.72,20,5.32l-3.81,10.14a37.23,37.23,0,0,0-19.36-5.17c-11.83,0-16.26,7.11-16.24,13.25,0,8,5.71,12,19.09,17.45,15.83,6.41,23.83,14.37,23.87,28,0,12.12-8.38,23.51-24.18,26.16l0,16Z" transform="translate(-56.52 -58.14)"/><path class="cls-17" d="M1087.26,298.32a91.2,91.2,0,1,1-47-120.12A91.2,91.2,0,0,1,1087.26,298.32Z" transform="translate(-56.52 -58.14)"/><path class="cls-18" d="M1072.34,291.79c-18,42.26-71.77,58-109.84,32.5a75,75,0,0,1-32.83-74c7.08-48.57,60.32-77,104.1-57.21C1071,209.06,1089.2,254,1072.34,291.79Z" transform="translate(-56.52 -58.14)"/><path class="cls-17" d="M998.59,324.72l0-15.51c-8.91-.12-18.13-2.86-23.51-6.69l3.66-10.29a40.93,40.93,0,0,0,22.12,6.54c10.91,0,18.26-6.35,18.23-15.1,0-8.45-6-13.65-17.4-18.22-15.68-6.1-25.37-13.14-25.41-26.49,0-12.75,9-22.45,23.12-24.79l-.05-15.51,9.52,0,0,14.89c9.21.28,15.51,2.72,20,5.32L1025,229a37.12,37.12,0,0,0-19.36-5.16c-11.82,0-16.26,7.1-16.24,13.25,0,8,5.72,12,19.09,17.45,15.83,6.4,23.84,14.36,23.88,28,0,12.13-8.38,23.51-24.19,26.17l0,16Z" transform="translate(-56.52 -58.14)"/><circle class="cls-17" cx="1699.88" cy="261.74" r="91.2" transform="translate(-76.55 207.59) rotate(-8.89)"/><path class="cls-18" d="M1768.5,291.79c-18,42.26-71.78,58-109.85,32.5a75.07,75.07,0,0,1-32.83-74c7.08-48.57,60.33-77,104.1-57.21C1767.18,209.06,1785.35,254,1768.5,291.79Z" transform="translate(-56.52 -58.14)"/><path class="cls-17" d="M1694.75,324.72l0-15.51c-8.9-.12-18.12-2.86-23.51-6.69l3.66-10.29a41,41,0,0,0,22.13,6.54c10.9,0,18.25-6.35,18.23-15.1,0-8.45-6-13.65-17.41-18.22-15.67-6.1-25.37-13.14-25.4-26.49,0-12.75,9-22.45,23.11-24.79l0-15.51,9.52,0,0,14.89c9.21.28,15.51,2.72,20,5.32L1721.19,229a37.12,37.12,0,0,0-19.36-5.16c-11.82,0-16.25,7.1-16.24,13.25,0,8,5.72,12,19.09,17.45,15.84,6.4,23.84,14.36,23.88,28,0,12.13-8.38,23.51-24.19,26.17l.05,16Z" transform="translate(-56.52 -58.14)"/><path class="cls-17" d="M1969.27,562.89a91.2,91.2,0,1,1-47-120.13A91.2,91.2,0,0,1,1969.27,562.89Z" transform="translate(-56.52 -58.14)"/><path class="cls-18" d="M1954.35,556.35c-18,42.27-71.77,58-109.84,32.51a75.06,75.06,0,0,1-32.83-74c7.08-48.56,60.32-77,104.1-57.21C1953,473.63,1971.21,518.58,1954.35,556.35Z" transform="translate(-56.52 -58.14)"/><path class="cls-17" d="M1880.6,589.29l0-15.51c-8.91-.13-18.13-2.86-23.51-6.69l3.66-10.3a40.85,40.85,0,0,0,22.12,6.54c10.91,0,18.26-6.34,18.23-15.09,0-8.45-6-13.65-17.4-18.23-15.68-6.09-25.37-13.13-25.41-26.49,0-12.74,9-22.44,23.12-24.78l0-15.51,9.52,0,.05,14.89c9.21.28,15.51,2.72,20,5.32l-3.81,10.14a37.2,37.2,0,0,0-19.36-5.17c-11.82,0-16.25,7.11-16.24,13.25,0,8,5.72,12,19.09,17.45,15.83,6.41,23.84,14.37,23.88,28,0,12.12-8.38,23.51-24.19,26.16l0,16Z" transform="translate(-56.52 -58.14)"/><path class="cls-17" d="M1462.28,185.94a91.2,91.2,0,1,1-47-120.12A91.19,91.19,0,0,1,1462.28,185.94Z" transform="translate(-56.52 -58.14)"/><path class="cls-18" d="M1447.36,179.41c-18,42.26-71.77,58.05-109.84,32.51a75.07,75.07,0,0,1-32.83-74c7.08-48.57,60.32-77,104.1-57.21C1446,96.69,1464.22,141.64,1447.36,179.41Z" transform="translate(-56.52 -58.14)"/><path class="cls-17" d="M1373.61,212.35l0-15.51c-8.91-.13-18.13-2.87-23.51-6.69l3.66-10.3a40.85,40.85,0,0,0,22.12,6.54c10.9,0,18.26-6.34,18.23-15.1,0-8.44-6-13.64-17.4-18.22-15.68-6.1-25.37-13.13-25.41-26.49,0-12.74,9-22.44,23.12-24.78l-.05-15.51,9.52,0,.05,14.9c9.21.28,15.51,2.72,20,5.31l-3.81,10.15a37,37,0,0,0-19.36-5.17c-11.82,0-16.26,7.11-16.24,13.25,0,8,5.72,12,19.09,17.45,15.83,6.41,23.84,14.37,23.88,28,0,12.13-8.38,23.52-24.19,26.17l0,16Z" transform="translate(-56.52 -58.14)"/><path class="cls-5" d="M1740.41,668.91a8,8,0,0,1-8-8c0-6.51-.16-13.1-.49-19.58a8,8,0,1,1,16-.82c.35,6.75.52,13.62.52,20.4A8,8,0,0,1,1740.41,668.91Z" transform="translate(-56.52 -58.14)"/><path class="cls-5" d="M1735.73,608.65a8,8,0,0,1-7.89-6.76,379.28,379.28,0,0,0-8.18-38.77,8,8,0,1,1,15.46-4.12,391.66,391.66,0,0,1,8.53,40.42,8,8,0,0,1-6.67,9.14A8.76,8.76,0,0,1,1735.73,608.65Zm-763.58-.33a7.61,7.61,0,0,1-1.25-.1,8,8,0,0,1-6.66-9.15,393.68,393.68,0,0,1,8.56-40.41,8,8,0,1,1,15.46,4.14A378.11,378.11,0,0,0,980,601.56,8,8,0,0,1,972.15,608.32Zm742.76-77.77a8,8,0,0,1-7.47-5.14,377.38,377.38,0,0,0-16.12-36.2,8,8,0,1,1,14.25-7.27,391.49,391.49,0,0,1,16.81,37.75,8,8,0,0,1-4.6,10.33A8.08,8.08,0,0,1,1714.91,530.55ZM993,530.25a8,8,0,0,1-7.46-10.87,395.39,395.39,0,0,1,16.82-37.7,8,8,0,1,1,14.25,7.28,378,378,0,0,0-16.14,36.16A8,8,0,0,1,993,530.25Zm685.17-71.72a8,8,0,0,1-6.72-3.64,380.18,380.18,0,0,0-23.31-32.06,8,8,0,0,1,12.44-10.07,396.77,396.77,0,0,1,24.29,33.41,8,8,0,0,1-6.7,12.36Zm-648.42-.22a8,8,0,0,1-6.7-12.37,396.53,396.53,0,0,1,24.31-33.38,8,8,0,1,1,12.42,10.08,382.07,382.07,0,0,0-23.32,32A8,8,0,0,1,1029.78,458.31Zm597.53-62.59a8,8,0,0,1-5.66-2.35,383.44,383.44,0,0,0-29.43-26.54,8,8,0,1,1,10.08-12.42A399.58,399.58,0,0,1,1633,382.06a8,8,0,0,1-5.66,13.66Zm-546.62-.17a8,8,0,0,1-5.66-13.66,397.81,397.81,0,0,1,30.7-27.64,8,8,0,1,1,10.07,12.43,381.4,381.4,0,0,0-29.45,26.52A8,8,0,0,1,1080.69,395.55Zm483.86-50.74a8,8,0,0,1-4.36-1.3,377.13,377.13,0,0,0-34.28-19.85,8,8,0,0,1,7.28-14.25,395.56,395.56,0,0,1,35.73,20.69,8,8,0,0,1-4.37,14.71Zm-421-.15a8,8,0,0,1-4.37-14.71,397.41,397.41,0,0,1,35.77-20.67,8,8,0,0,1,7.27,14.25,379.06,379.06,0,0,0-34.32,19.84A8,8,0,0,1,1143.5,344.66Zm349.12-36.61a8,8,0,0,1-2.87-.53,378.09,378.09,0,0,0-37.68-12.26,8,8,0,1,1,4.14-15.45,392.88,392.88,0,0,1,39.28,12.77,8,8,0,0,1-2.87,15.47Zm-277.11-.11a8,8,0,0,1-2.87-15.48A395.84,395.84,0,0,1,1252,279.72a8,8,0,0,1,4.13,15.46,377.56,377.56,0,0,0-37.71,12.22A8,8,0,0,1,1215.51,307.94Zm199.06-20.8a9,9,0,0,1-1.26-.09,381,381,0,0,0-39.41-4.12,8,8,0,0,1,.83-16,399.36,399.36,0,0,1,41.07,4.29,8,8,0,0,1-1.23,15.9Zm-121-.05a8,8,0,0,1-1.22-15.9,399.31,399.31,0,0,1,41.07-4.26,8,8,0,0,1,.82,16,384.24,384.24,0,0,0-39.42,4.08A7.53,7.53,0,0,1,1293.59,287.09Z" transform="translate(-56.52 -58.14)"/><path class="cls-5" d="M967.42,668.91a8,8,0,0,1-8-8c0-6.78.17-13.64.52-20.4a8,8,0,0,1,16,.82c-.33,6.48-.5,13.07-.5,19.58A8,8,0,0,1,967.42,668.91Z" transform="translate(-56.52 -58.14)"/><path class="cls-5" d="M1075.71,668.91a8,8,0,0,1-8-8c0-6.84.24-13.75.72-20.55a8,8,0,0,1,16,1.13c-.45,6.42-.68,13-.68,19.42A8,8,0,0,1,1075.71,668.91Z" transform="translate(-56.52 -58.14)"/><path class="cls-5" d="M1082,609.64a8.26,8.26,0,0,1-1.7-.18,8,8,0,0,1-6.12-9.51,285.76,285.76,0,0,1,11.5-39.2,8,8,0,0,1,15,5.6,270.29,270.29,0,0,0-10.86,37A8,8,0,0,1,1082,609.64Zm543.7-.21a8,8,0,0,1-7.81-6.3,267,267,0,0,0-10.88-37,8,8,0,1,1,15-5.61,284.93,284.93,0,0,1,11.53,39.16,8,8,0,0,1-6.12,9.52A8.28,8.28,0,0,1,1625.74,609.43Zm-516-74a8,8,0,0,1-7-11.84,287.34,287.34,0,0,1,22.12-34.32,8,8,0,1,1,12.79,9.6,271.94,271.94,0,0,0-20.87,32.4A8,8,0,0,1,1109.73,535.47Zm488.29-.14a8,8,0,0,1-7-4.15,270.06,270.06,0,0,0-20.88-32.37,8,8,0,0,1,12.79-9.61A287,287,0,0,1,1605,523.49a8,8,0,0,1-7,11.84Zm-440.78-63.19a8,8,0,0,1-5.65-13.66,289.12,289.12,0,0,1,30.83-26.73,8,8,0,0,1,9.6,12.81,271.84,271.84,0,0,0-29.12,25.24A8,8,0,0,1,1157.24,472.14Zm393.26-.09a8,8,0,0,1-5.65-2.34,273.09,273.09,0,0,0-29.14-25.23,8,8,0,0,1,9.59-12.81,288.11,288.11,0,0,1,30.85,26.72,8,8,0,0,1-5.65,13.66Zm-329.92-47.37a8,8,0,0,1-3.85-15,285.4,285.4,0,0,1,37.11-17,8,8,0,0,1,5.59,15,271,271,0,0,0-35,16A7.91,7.91,0,0,1,1220.58,424.68Zm266.54-.07a7.91,7.91,0,0,1-3.83-1,269.5,269.5,0,0,0-35.06-16,8,8,0,0,1,5.59-15,285.78,285.78,0,0,1,37.14,17,8,8,0,0,1-3.84,15ZM1294.7,397A8,8,0,0,1,1293,381.2a286.9,286.9,0,0,1,40.4-5.77,8,8,0,1,1,1.13,16,269.68,269.68,0,0,0-38.14,5.45A8.26,8.26,0,0,1,1294.7,397Zm118.23,0a7.62,7.62,0,0,1-1.7-.18,271.08,271.08,0,0,0-38.14-5.42,8,8,0,1,1,1.12-16,286.84,286.84,0,0,1,40.4,5.74,8,8,0,0,1-1.68,15.82Z" transform="translate(-56.52 -58.14)"/><path class="cls-5" d="M1632.12,668.91a8,8,0,0,1-8-8c0-6.47-.23-13-.68-19.42a8,8,0,0,1,16-1.13c.48,6.79.72,13.71.72,20.55A8,8,0,0,1,1632.12,668.91Z" transform="translate(-56.52 -58.14)"/><path class="cls-19" d="M1739,673.59h-.1a5,5,0,0,1-3.91-2l-51.06-68.67a5,5,0,0,1,8-6l47.21,63.5,47-58.37a5,5,0,0,1,7.78,6.27l-51.07,63.39A5,5,0,0,1,1739,673.59Z" transform="translate(-56.52 -58.14)"/><path class="cls-19" d="M1075.55,673.59h-.1a5,5,0,0,1-3.91-2l-51.06-68.67a5,5,0,0,1,8-6l47.21,63.5,47-58.37a5,5,0,0,1,7.78,6.27l-51.06,63.39A5,5,0,0,1,1075.55,673.59Z" transform="translate(-56.52 -58.14)"/><path class="cls-18" d="M2090.77,1751v20.26a14.34,14.34,0,0,1-14.33,14.33H1829.17a14.34,14.34,0,0,1-14.34-14.33V1751a14.35,14.35,0,0,1,14.34-14.34h247.27a14.34,14.34,0,0,1,14.33,14.34Z" transform="translate(-56.52 -58.14)"/><rect class="cls-17" x="1772.02" y="1678.54" width="7.18" height="48.93"/><rect class="cls-17" x="1802.14" y="1678.54" width="7.18" height="48.93"/><rect class="cls-17" x="1832.26" y="1678.54" width="7.18" height="48.93"/><rect class="cls-17" x="1862.38" y="1678.54" width="7.18" height="48.93"/><rect class="cls-17" x="1892.5" y="1678.54" width="7.18" height="48.93"/><rect class="cls-17" x="1922.61" y="1678.54" width="7.18" height="48.93"/><rect class="cls-17" x="1952.73" y="1678.54" width="7.18" height="48.93"/><rect class="cls-17" x="1982.85" y="1678.54" width="7.18" height="48.93"/><rect class="cls-17" x="2012.97" y="1678.54" width="7.18" height="48.93"/><path class="cls-17" d="M2087.39,1741.77H1818.22a14.31,14.31,0,0,1,11-5.09h247.27A14.34,14.34,0,0,1,2087.39,1741.77Z" transform="translate(-56.52 -58.14)"/><path class="cls-17" d="M2087.39,1780.53H1818.22a14.3,14.3,0,0,0,11,5.08h247.27A14.33,14.33,0,0,0,2087.39,1780.53Z" transform="translate(-56.52 -58.14)"/><path class="cls-18" d="M2108.07,1702.09v20.26a14.34,14.34,0,0,1-14.34,14.33H1846.46a14.34,14.34,0,0,1-14.33-14.33v-20.26a14.32,14.32,0,0,1,14.33-14.33h247.27a14.34,14.34,0,0,1,14.34,14.33Z" transform="translate(-56.52 -58.14)"/><rect class="cls-17" x="1789.31" y="1629.62" width="7.18" height="48.92"/><rect class="cls-17" x="1819.43" y="1629.62" width="7.18" height="48.92"/><rect class="cls-17" x="1849.55" y="1629.62" width="7.18" height="48.92"/><rect class="cls-17" x="1879.67" y="1629.62" width="7.18" height="48.92"/><rect class="cls-17" x="1909.79" y="1629.62" width="7.18" height="48.92"/><rect class="cls-17" x="1939.91" y="1629.62" width="7.18" height="48.92"/><rect class="cls-17" x="1970.03" y="1629.62" width="7.18" height="48.92"/><rect class="cls-17" x="2000.15" y="1629.62" width="7.18" height="48.92"/><rect class="cls-17" x="2030.27" y="1629.62" width="7.18" height="48.92"/><path class="cls-17" d="M2104.68,1692.84H1835.51a14.32,14.32,0,0,1,11-5.08h247.27A14.3,14.3,0,0,1,2104.68,1692.84Z" transform="translate(-56.52 -58.14)"/><path class="cls-17" d="M2104.68,1731.6H1835.51a14.32,14.32,0,0,0,11,5.08h247.27A14.3,14.3,0,0,0,2104.68,1731.6Z" transform="translate(-56.52 -58.14)"/><path class="cls-18" d="M2094.66,1653.25v20.26a14.34,14.34,0,0,1-14.34,14.33H1833.05a14.34,14.34,0,0,1-14.33-14.33v-20.26a14.34,14.34,0,0,1,14.33-14.34h247.27a14.35,14.35,0,0,1,14.34,14.34Z" transform="translate(-56.52 -58.14)"/><rect class="cls-17" x="1775.9" y="1580.77" width="7.18" height="48.92"/><rect class="cls-17" x="1806.02" y="1580.77" width="7.18" height="48.92"/><rect class="cls-17" x="1836.14" y="1580.77" width="7.18" height="48.92"/><rect class="cls-17" x="1866.26" y="1580.77" width="7.18" height="48.92"/><rect class="cls-17" x="1896.38" y="1580.77" width="7.18" height="48.92"/><rect class="cls-17" x="1926.5" y="1580.77" width="7.18" height="48.92"/><rect class="cls-17" x="1956.62" y="1580.77" width="7.18" height="48.92"/><rect class="cls-17" x="1986.74" y="1580.77" width="7.18" height="48.92"/><rect class="cls-17" x="2016.86" y="1580.77" width="7.18" height="48.92"/><path class="cls-17" d="M2091.27,1644H1822.1a14.32,14.32,0,0,1,11-5.09h247.27A14.31,14.31,0,0,1,2091.27,1644Z" transform="translate(-56.52 -58.14)"/><path class="cls-17" d="M2091.27,1682.76H1822.1a14.32,14.32,0,0,0,11,5.08h247.27A14.3,14.3,0,0,0,2091.27,1682.76Z" transform="translate(-56.52 -58.14)"/><path class="cls-18" d="M2100.18,1605.3v20.25a14.34,14.34,0,0,1-14.34,14.34H1838.57a14.34,14.34,0,0,1-14.33-14.34V1605.3a14.32,14.32,0,0,1,14.33-14.34h247.27a14.34,14.34,0,0,1,14.34,14.34Z" transform="translate(-56.52 -58.14)"/><rect class="cls-17" x="1781.42" y="1532.82" width="7.18" height="48.92"/><rect class="cls-17" x="1811.54" y="1532.82" width="7.18" height="48.92"/><rect class="cls-17" x="1841.66" y="1532.82" width="7.18" height="48.92"/><rect class="cls-17" x="1871.78" y="1532.82" width="7.18" height="48.92"/><rect class="cls-17" x="1901.9" y="1532.82" width="7.18" height="48.92"/><rect class="cls-17" x="1932.02" y="1532.82" width="7.18" height="48.92"/><rect class="cls-17" x="1962.14" y="1532.82" width="7.18" height="48.92"/><rect class="cls-17" x="1992.26" y="1532.82" width="7.18" height="48.92"/><rect class="cls-17" x="2022.38" y="1532.82" width="7.18" height="48.92"/><path class="cls-17" d="M2096.79,1596H1827.62a14.3,14.3,0,0,1,11-5.08h247.27A14.3,14.3,0,0,1,2096.79,1596Z" transform="translate(-56.52 -58.14)"/><path class="cls-17" d="M2096.79,1634.81H1827.62a14.33,14.33,0,0,0,11,5.08h247.27A14.33,14.33,0,0,0,2096.79,1634.81Z" transform="translate(-56.52 -58.14)"/><path class="cls-18" d="M2069.35,1555.63v20.26a14.34,14.34,0,0,1-14.33,14.34H1807.75a14.34,14.34,0,0,1-14.34-14.34v-20.26a14.34,14.34,0,0,1,14.34-14.33H2055a14.32,14.32,0,0,1,14.33,14.33Z" transform="translate(-56.52 -58.14)"/><rect class="cls-17" x="1750.6" y="1483.16" width="7.18" height="48.93"/><rect class="cls-17" x="1780.72" y="1483.16" width="7.18" height="48.93"/><rect class="cls-17" x="1810.84" y="1483.16" width="7.18" height="48.93"/><rect class="cls-17" x="1840.96" y="1483.16" width="7.18" height="48.93"/><rect class="cls-17" x="1871.07" y="1483.16" width="7.18" height="48.93"/><rect class="cls-17" x="1901.19" y="1483.16" width="7.18" height="48.93"/><rect class="cls-17" x="1931.31" y="1483.16" width="7.18" height="48.93"/><rect class="cls-17" x="1961.43" y="1483.16" width="7.18" height="48.93"/><rect class="cls-17" x="1991.55" y="1483.16" width="7.18" height="48.93"/><path class="cls-17" d="M2066,1546.38H1796.8a14.3,14.3,0,0,1,11-5.08H2055A14.33,14.33,0,0,1,2066,1546.38Z" transform="translate(-56.52 -58.14)"/><path class="cls-17" d="M2066,1585.14H1796.8a14.3,14.3,0,0,0,11,5.08H2055A14.33,14.33,0,0,0,2066,1585.14Z" transform="translate(-56.52 -58.14)"/><path class="cls-18" d="M2099.68,1507.28v20.26a14.34,14.34,0,0,1-14.33,14.33H1838.08a14.34,14.34,0,0,1-14.34-14.33v-20.26a14.34,14.34,0,0,1,14.34-14.34h247.27a14.32,14.32,0,0,1,14.33,14.34Z" transform="translate(-56.52 -58.14)"/><rect class="cls-17" x="1780.93" y="1434.8" width="7.18" height="48.92"/><rect class="cls-17" x="1811.05" y="1434.8" width="7.18" height="48.92"/><rect class="cls-17" x="1841.17" y="1434.8" width="7.18" height="48.92"/><rect class="cls-17" x="1871.29" y="1434.8" width="7.18" height="48.92"/><rect class="cls-17" x="1901.41" y="1434.8" width="7.18" height="48.92"/><rect class="cls-17" x="1931.53" y="1434.8" width="7.18" height="48.92"/><rect class="cls-17" x="1961.65" y="1434.8" width="7.18" height="48.92"/><rect class="cls-17" x="1991.76" y="1434.8" width="7.18" height="48.92"/><rect class="cls-17" x="2021.88" y="1434.8" width="7.18" height="48.92"/><path class="cls-17" d="M2096.3,1498H1827.13a14.33,14.33,0,0,1,10.95-5.08h247.27A14.33,14.33,0,0,1,2096.3,1498Z" transform="translate(-56.52 -58.14)"/><path class="cls-17" d="M2096.3,1536.79H1827.13a14.3,14.3,0,0,0,10.95,5.08h247.27A14.3,14.3,0,0,0,2096.3,1536.79Z" transform="translate(-56.52 -58.14)"/><path class="cls-18" d="M2088.93,1458.2v20.26a14.34,14.34,0,0,1-14.34,14.34H1827.32a14.34,14.34,0,0,1-14.33-14.34V1458.2a14.32,14.32,0,0,1,14.33-14.33h247.27a14.34,14.34,0,0,1,14.34,14.33Z" transform="translate(-56.52 -58.14)"/><rect class="cls-17" x="1770.17" y="1385.73" width="7.18" height="48.93"/><rect class="cls-17" x="1800.29" y="1385.73" width="7.18" height="48.93"/><rect class="cls-17" x="1830.41" y="1385.73" width="7.18" height="48.93"/><rect class="cls-17" x="1860.53" y="1385.73" width="7.18" height="48.93"/><rect class="cls-17" x="1890.65" y="1385.73" width="7.18" height="48.93"/><rect class="cls-17" x="1920.77" y="1385.73" width="7.18" height="48.93"/><rect class="cls-17" x="1950.89" y="1385.73" width="7.18" height="48.93"/><rect class="cls-17" x="1981.01" y="1385.73" width="7.18" height="48.93"/><rect class="cls-17" x="2011.13" y="1385.73" width="7.18" height="48.93"/><path class="cls-17" d="M2085.54,1449H1816.37a14.3,14.3,0,0,1,11-5.08h247.27A14.3,14.3,0,0,1,2085.54,1449Z" transform="translate(-56.52 -58.14)"/><path class="cls-17" d="M2085.54,1487.71H1816.37a14.31,14.31,0,0,0,11,5.09h247.27A14.31,14.31,0,0,0,2085.54,1487.71Z" transform="translate(-56.52 -58.14)"/><path class="cls-18" d="M2103.7,1409.55v20.26a14.34,14.34,0,0,1-14.33,14.33H1842.1a14.34,14.34,0,0,1-14.34-14.33v-20.26a14.34,14.34,0,0,1,14.34-14.34h247.27a14.32,14.32,0,0,1,14.33,14.34Z" transform="translate(-56.52 -58.14)"/><rect class="cls-17" x="1784.95" y="1337.07" width="7.18" height="48.93"/><rect class="cls-17" x="1815.07" y="1337.07" width="7.18" height="48.93"/><rect class="cls-17" x="1845.19" y="1337.07" width="7.18" height="48.93"/><rect class="cls-17" x="1875.31" y="1337.07" width="7.18" height="48.93"/><rect class="cls-17" x="1905.43" y="1337.07" width="7.18" height="48.93"/><rect class="cls-17" x="1935.55" y="1337.07" width="7.18" height="48.93"/><rect class="cls-17" x="1965.67" y="1337.07" width="7.18" height="48.93"/><rect class="cls-17" x="1995.78" y="1337.07" width="7.18" height="48.93"/><rect class="cls-17" x="2025.9" y="1337.07" width="7.18" height="48.93"/><path class="cls-17" d="M2100.32,1400.29H1831.15a14.3,14.3,0,0,1,10.95-5.08h247.27A14.32,14.32,0,0,1,2100.32,1400.29Z" transform="translate(-56.52 -58.14)"/><path class="cls-17" d="M2100.32,1439.06H1831.15a14.3,14.3,0,0,0,10.95,5.08h247.27A14.32,14.32,0,0,0,2100.32,1439.06Z" transform="translate(-56.52 -58.14)"/><circle class="cls-17" cx="1820.22" cy="1640.31" r="147.57" transform="translate(-478.66 594.42) rotate(-18.25)"/><path class="cls-18" d="M1935.57,1677.56a121.28,121.28,0,0,1-198.91,50.6A124,124,0,0,1,1728,1719a121.22,121.22,0,1,1,207.55-41.47Z" transform="translate(-56.52 -58.14)"/><path class="cls-20" d="M1895.06,1544.92,1728,1719a121.51,121.51,0,0,1-28.88-85.09l109.7-114.35a121.7,121.7,0,0,1,86.22,25.33Z" transform="translate(-56.52 -58.14)"/><path class="cls-20" d="M1925.18,1579.68,1764,1747.7a120.23,120.23,0,0,1-27.33-19.54l167.86-175A121.18,121.18,0,0,1,1925.18,1579.68Z" transform="translate(-56.52 -58.14)"/><path class="cls-3" d="M1828.35,1525.09c-14.32-1.5-16.94-.09-23.37,12.61,1.6-14.15.19-16.76-12.61-23.37,14.32,1.51,16.94.1,23.37-12.61C1814.24,1516.05,1815.65,1518.66,1828.35,1525.09Z" transform="translate(-56.52 -58.14)"/><path class="cls-3" d="M1777.67,1752.77c-12.09-1.27-14.29-.08-19.72,10.64,1.35-11.94.16-14.15-10.64-19.72,12.08,1.27,14.29.08,19.72-10.64C1765.76,1745.13,1767,1747.34,1777.67,1752.77Z" transform="translate(-56.52 -58.14)"/><path class="cls-4" d="M1915.87,1150.41c-89.31,0-162-72.66-162-162s72.66-162,162-162,162,72.66,162,162S2005.17,1150.41,1915.87,1150.41Zm0-315.93c-84.9,0-154,69.07-154,154s69.07,154,154,154,154-69.07,154-154S2000.76,834.48,1915.87,834.48Z" transform="translate(-56.52 -58.14)"/><path class="cls-4" d="M1915.87,1080.36a21.49,21.49,0,0,1-21.5-21.5V761.69a21.5,21.5,0,0,1,43,0v297.17A21.5,21.5,0,0,1,1915.87,1080.36Z" transform="translate(-56.52 -58.14)"/><path class="cls-4" d="M1915.87,1150.41c-89.31,0-162-72.66-162-162s72.66-162,162-162,162,72.66,162,162S2005.17,1150.41,1915.87,1150.41Zm0-315.93c-84.9,0-154,69.07-154,154s69.07,154,154,154,154-69.07,154-154S2000.76,834.48,1915.87,834.48Z" transform="translate(-56.52 -58.14)"/><path class="cls-4" d="M1915.87,1080.36a21.49,21.49,0,0,1-21.5-21.5V761.69a21.5,21.5,0,0,1,43,0v297.17A21.5,21.5,0,0,1,1915.87,1080.36Z" transform="translate(-56.52 -58.14)"/><path class="cls-4" d="M1917.34,1098l-.83,0a21.51,21.51,0,0,1-16.55-8.83l-89.28-114.4a21.5,21.5,0,0,1,34.76-25.31l73.25,92.38,68.64-93.69A21.5,21.5,0,1,1,2020,976.08l-86.33,114.4A21.52,21.52,0,0,1,1917.34,1098Z" transform="translate(-56.52 -58.14)"/><path class="cls-4" d="M842.55,1133.94c-89.31,0-162-72.66-162-162s72.66-162,162-162,162,72.66,162,162S931.85,1133.94,842.55,1133.94Zm0-315.93c-84.9,0-154,69.07-154,154s69.07,154,154,154,154-69.07,154-154S927.44,818,842.55,818Z" transform="translate(-56.52 -58.14)"/><circle class="cls-4" cx="842.55" cy="971.98" r="117.21" transform="translate(-497.03 822.31) rotate(-45)"/><path class="cls-5" d="M931.32,1021.17a101.26,101.26,0,0,1-177.55,0,102.12,102.12,0,0,1,48.48-43.68,54.44,54.44,0,1,1,80.59,0A102.12,102.12,0,0,1,931.32,1021.17Z" transform="translate(-56.52 -58.14)"/><path class="cls-17" d="M2084.82,1249.69l-68-36.55q-2.86,5.35-5.75,10.69h0c-2.77,5.17,10.27,17.58,29.14,27.73s36.42,14.19,39.2,9C2079.71,1260.11,2084.82,1249.69,2084.82,1249.69Z" transform="translate(-56.52 -58.14)"/><path class="cls-18" d="M2084.89,1250.47c-2.78,5.16-20.33,1.12-39.2-9s-31.91-22.56-29.13-27.72,20.32-1.13,39.19,9S2087.67,1245.3,2084.89,1250.47Z" transform="translate(-56.52 -58.14)"/><path class="cls-17" d="M1782.85,1387l-68.77,11.17q.87,5.4,1.75,10.81h0c.85,5.23,17,7,36.12,3.85s33.89-9.85,33-15.08C1784.92,1397.3,1782.85,1387,1782.85,1387Z" transform="translate(-56.52 -58.14)"/><path class="cls-18" d="M1783.33,1387.54c.85,5.23-13.94,12-33,15.08s-35.27,1.38-36.12-3.85,13.95-12,33-15.08S1782.48,1382.31,1783.33,1387.54Z" transform="translate(-56.52 -58.14)"/><path class="cls-17" d="M1865,1266.37l-62.51-30.78q-2.41,4.9-4.84,9.83h0c-2.34,4.75,9.84,15.53,27.19,24.08s33.33,11.63,35.67,6.88C1860.74,1275.94,1865,1266.37,1865,1266.37Z" transform="translate(-56.52 -58.14)"/><path class="cls-18" d="M1865.11,1267.07c-2.34,4.75-18.31,1.67-35.66-6.87s-29.54-19.34-27.19-24.09,18.3-1.67,35.66,6.88S1867.45,1262.32,1865.11,1267.07Z" transform="translate(-56.52 -58.14)"/><path class="cls-17" d="M1771.85,1150.24l-72,11.7q.92,5.65,1.84,11.32h0c.89,5.47,17.81,7.28,37.8,4s35.48-10.32,34.59-15.79C1774,1161,1771.85,1150.24,1771.85,1150.24Z" transform="translate(-56.52 -58.14)"/><path class="cls-18" d="M1772.35,1150.79c.89,5.47-14.6,12.54-34.59,15.78s-36.91,1.44-37.8-4,14.59-12.54,34.58-15.78S1771.46,1145.31,1772.35,1150.79Z" transform="translate(-56.52 -58.14)"/><rect class="cls-4" x="528.84" y="1171.32" width="506.8" height="162.58" rx="35.12"/><path class="cls-17" d="M742.79,1287.88v45.74a22.32,22.32,0,0,1-22.32,22.32H634a22.32,22.32,0,0,1-22.31-22.32v-45.74A22.31,22.31,0,0,1,634,1265.56h86.5a22.34,22.34,0,0,1,22.32,22.32Z" transform="translate(-56.52 -58.14)"/><path class="cls-5" d="M919.1,1329.36H775.57A18.61,18.61,0,0,1,757,1310.75h0a18.61,18.61,0,0,1,18.61-18.61H919.1a18.61,18.61,0,0,1,18.61,18.61h0A18.61,18.61,0,0,1,919.1,1329.36Z" transform="translate(-56.52 -58.14)"/><path class="cls-21" d="M1047.26,1329.36H975.33a18.61,18.61,0,0,1-18.6-18.61h0a18.61,18.61,0,0,1,18.6-18.61h71.93a18.61,18.61,0,0,1,18.6,18.61h0A18.61,18.61,0,0,1,1047.26,1329.36Z" transform="translate(-56.52 -58.14)"/><path class="cls-18" d="M733.88,1270.05l-112.21,82.19a22.29,22.29,0,0,1-10-18.62v-45.74A22.31,22.31,0,0,1,634,1265.56h86.5A22.17,22.17,0,0,1,733.88,1270.05Z" transform="translate(-56.52 -58.14)"/><path class="cls-13" d="M713.77,1330.22a15,15,0,1,1-15-15A15,15,0,0,1,713.77,1330.22Z" transform="translate(-56.52 -58.14)"/><path class="cls-5" d="M731.59,1330.22a15,15,0,1,1-15-15A15,15,0,0,1,731.59,1330.22Z" transform="translate(-56.52 -58.14)"/><path class="cls-16" d="M2321.19,1125.39c8.72-27.31,6.58-53.81-12.58-71.65-19.43-18.08-50.57-12.41-50.57-12.41h0s-21.79-14.2-49.1,4.39-16,43.46-29,58.69c-7.7,9-34.82,4.74-36,39.86-.33,10.13,9.71,19.41,19.39,22.42,17,5.29,35.84,1.84,40.09,10.83,14.63,30.93,70.83,31.88,82.83,13.47,3.72-5.7,46.81,17.43,52.44-26.19C2341.54,1142.71,2313.39,1149.8,2321.19,1125.39Z" transform="translate(-56.52 -58.14)"/><path class="cls-14" d="M2209.89,1114.65c-3.54,33.63,15,63.14,41.41,65.92s50.69-22.23,54.22-55.85-15-63.14-41.41-65.92S2213.43,1081,2209.89,1114.65Z" transform="translate(-56.52 -58.14)"/><path d="M2291.23,1128.82a4.62,4.62,0,1,0,4-5.14A4.61,4.61,0,0,0,2291.23,1128.82Z" transform="translate(-56.52 -58.14)"/><path d="M2254.05,1125.17a5,5,0,1,0,4.35-5.57A5,5,0,0,0,2254.05,1125.17Z" transform="translate(-56.52 -58.14)"/><path class="cls-16" d="M2250.22,1119.42a1.64,1.64,0,0,0,1-.51c4.17-4.26,10.9-3,11-3a1.74,1.74,0,0,0,.68-3.41c-.35-.07-8.63-1.67-14.13,4a1.74,1.74,0,0,0,0,2.46A1.71,1.71,0,0,0,2250.22,1119.42Z" transform="translate(-56.52 -58.14)"/><path class="cls-16" d="M2303,1125.87a1.58,1.58,0,0,0,.55-.16,1.74,1.74,0,0,0,.8-2.32,12.19,12.19,0,0,0-10.43-6.84,1.74,1.74,0,1,0,0,3.47,8.74,8.74,0,0,1,7.33,4.88A1.74,1.74,0,0,0,2303,1125.87Z" transform="translate(-56.52 -58.14)"/><path class="cls-15" d="M2285.09,1137.3c1.52,3.3,2.72,6.58,4.49,8.82a1.83,1.83,0,0,1-.25,2.5c-3,2.62-9.32,3.4-13.12,3.64a.49.49,0,0,1-.21-.94,23.89,23.89,0,0,0,7.57-4.35,2.18,2.18,0,0,0,.65-1.87c-.2-1.59-.59-4.82-.7-7.43A.82.82,0,0,1,2285.09,1137.3Z" transform="translate(-56.52 -58.14)"/><path class="cls-3" d="M2249.43,1152.5a1.38,1.38,0,0,1,1.94-1.65,118.38,118.38,0,0,0,12,5.17,116.11,116.11,0,0,0,12.6,3.53,1.38,1.38,0,0,1,.46,2.5,17.3,17.3,0,0,1-27-9.55Z" transform="translate(-56.52 -58.14)"/><path class="cls-16" d="M2210.26,1111.7c30.43,6.38,81.56-8.85,90.27-22.87.83-20.24-25.87-40-45.77-37.52S2206.07,1084.38,2210.26,1111.7Z" transform="translate(-56.52 -58.14)"/><path class="cls-15" d="M2299.85,1202.59c31.32,7.82,84.86,81,89.88,135.89-17.19,3.56-36.83-10.14-36.83-10.14l-42.55-61.21Z" transform="translate(-56.52 -58.14)"/><path class="cls-14" d="M2330.14,1830.49l16.78-66.08-41.63-5.73c-1.43,31.25-3.77,62-3.56,70.35Z" transform="translate(-56.52 -58.14)"/><path class="cls-14" d="M2230.81,1758.3h-43.46c1.43,10.41,7.13,66.81,7.13,66.81,3.67,8.34,36.06,6.43,36.06,1.75C2228.09,1816.7,2230.61,1759.6,2230.81,1758.3Z" transform="translate(-56.52 -58.14)"/><path class="cls-12" d="M2301.88,1784.12l42.86,6.33,29.72-177.74c-6.12-67.45-65.5-211-65.5-211L2242,1425.2l-1.63,63.29L2321,1625C2310.5,1651.35,2303.31,1736.67,2301.88,1784.12Z" transform="translate(-56.52 -58.14)"/><path class="cls-13" d="M2268.75,1406.52c-.61-4.17-.82-5.47-4.29-7.56l-64.27-18.23-15.31,15.11c-14.49,52.61-5.51,125.79,5.92,183.86-16.73,50.27-10.19,153.89-3.45,202.59h45.71c2.65-32.56,1.82-92.94,2-122.11h0c5.92-23.44,11.63-48.44,16.73-74.75,6.53-33.59,14.69-66.15,16.94-96.62C2270.79,1459.9,2271.4,1428.91,2268.75,1406.52Z" transform="translate(-56.52 -58.14)"/><path class="cls-14" d="M2187.67,1194.57c-15.11,9.92-78.8,92.78-43.7,161,1.62.9,29.73-46.73,29.73-46.73l33.18-65.69Z" transform="translate(-56.52 -58.14)"/><path class="cls-14" d="M2219.65,1151.47l39.9,22.66s3.54,16.15,5.31,21.4c3.65,10.81-10.33,15.54-22.14,8.81a80.52,80.52,0,0,1-19.46-15.75Z" transform="translate(-56.52 -58.14)"/><path class="cls-6" d="M2318.9,1412.26s-16.47,19.49-19.25,21l-14.75-16.11-.1.28-3.5,9.21-4.09,10.76c-3.42,0-106.25-23-106.25-23,.21-9.27,8.92-39.3,23-71.26-3.42-27.08-.14-55.22-1.21-70.83,8.31-41.87,2.38-57.94-5.11-77.67l26.09-7.7,47,16.56,3.49-11.32s29.45,7.06,35.64,10.48L2311,1249l-2.41,98.63S2312.26,1387.37,2318.9,1412.26Z" transform="translate(-56.52 -58.14)"/><path class="cls-10" d="M2222.83,1181.65l-18.4,7.81c1.94,22.1,51.38,35.3,51.38,35.3l4.91-21.33Z" transform="translate(-56.52 -58.14)"/><path class="cls-10" d="M2260.72,1203.43l14.56,16.18s12.59-13,8-21.07-21.24-13.47-21.24-13.47Z" transform="translate(-56.52 -58.14)"/><path class="cls-9" d="M2320,1829.42c4.36-11.43,13.66-12.7,13.66-12.7,18.09,24.13,62.51,9.32,61,42-67.55-.42-95.63,0-95.63,0,.09-7.5,1.43-25.29,3-32.26l3.52.63Z" transform="translate(-56.52 -58.14)"/><path class="cls-9" d="M2242.57,1799.64h95.66a0,0,0,0,1,0,0v5.67a3.94,3.94,0,0,1-3.94,3.94h-87.77a3.95,3.95,0,0,1-3.95-3.95v-5.66A0,0,0,0,1,2242.57,1799.64Z"/><path class="cls-10" d="M2284.8,1417.39l-3.5,9.21c-3.17-21.19-15-109.9-8.32-134.39,6.26-23-1.57-47.26-9.15-70.72-1.84-5.73-3.77-11.65-5.41-17.4l2.3-.66,2.3-.66c1.62,5.67,3.52,11.56,5.36,17.25,7.79,24.12,15.83,49.07,9.2,73.45C2271.83,1314.61,2280.65,1387.43,2284.8,1417.39Z" transform="translate(-56.52 -58.14)"/><path class="cls-9" d="M2238.28,1859s-5.42-20.23-5.9-22.83c-.55-3-2.14-9.94-2.46-13.52-.08-.89-9.4-6.58-16.51-6.57-9.63,0-18.4,5.6-18.58,6.65-1.14,6.75-1.17,14.69-3,21.26-1.37,4.89-5.09,16.29-5.09,16.29Z" transform="translate(-56.52 -58.14)"/><path class="cls-9" d="M2238.28,1857.42c-1.27,4-16.86-.62-28.24-.61-9.55,0-21.91,3.7-23.31,2.26-2.39,4.22-.43,13-.43,13s10,.52,21.9,0,25.74.25,30.94-1.29C2242.42,1865.25,2238.28,1857.42,2238.28,1857.42Z" transform="translate(-56.52 -58.14)"/><path class="cls-14" d="M2258.24,1287.44s-82.3,82.49-114.27,68.16c-10.54-14.25,11.84-42.85,32.81-52.43s55.93-24.59,55.93-24.59Z" transform="translate(-56.52 -58.14)"/><path class="cls-22" d="M2273.82,1259.41,2308,1233a3.39,3.39,0,0,1,2.61-.65l23.29,4.23c.67.11,2,4.17,1.49,4.58l-23.25,14a.76.76,0,0,1-.38.16l-36.56,6.27C2274.45,1261.67,2273.2,1259.89,2273.82,1259.41Z" transform="translate(-56.52 -58.14)"/><path class="cls-23" d="M2275.58,1261.94l32.52-24.82a3.41,3.41,0,0,1,2.62-.65l24.06,4.07a.77.77,0,0,1,.34,1.37l-22.88,17.34a.76.76,0,0,1-.38.16l-35.73,3.91A.77.77,0,0,1,2275.58,1261.94Z" transform="translate(-56.52 -58.14)"/><path class="cls-14" d="M2231.81,1279l19.22-9.62s12.18-13.26,16-17.22c4.87-1.42,14.34-5.5,16.27-5.36a26.4,26.4,0,0,1,5.19,1.28l-11.12,8.7s4.53,2.09,10.89-.45,18.21-10.34,22.78-7.55l1.45,1.87s4-3.1,6.42-1c7.46,6.65-40.63,35.31-40.63,35.31l-20,2.4Z" transform="translate(-56.52 -58.14)"/><path class="cls-22" d="M2311.64,1242.45c-1.35.92-3,.83-3.75-.22s-.2-2.65,1.16-3.57,3-.83,3.75.22S2313,1241.52,2311.64,1242.45Z" transform="translate(-56.52 -58.14)"/><path class="cls-15" d="M2389.73,1338.48s-42.66,48.79-72.36,55.68c-1.76-9.78-3.39-17.27-3.39-17.27l40.48-53.29Z" transform="translate(-56.52 -58.14)"/><path id="c" class="cls-15" d="M2312,1396.84a4.1,4.1,0,0,1,.61-1.13l-.21-.07c-4.22-1.4-6.82-5-5.81-8a4.18,4.18,0,0,1,.74-1.34c-2.23-1.73-3.36-4.17-2.64-6.33a4.49,4.49,0,0,1,1.57-2.13c-2.35-1.59-3.55-4.24-2.75-6.65,1-3,4.74-4.51,8.34-3.31s5.7,4.61,4.69,7.63a4.86,4.86,0,0,1-1.24,2c3.51,1.62,5.56,4.81,4.65,7.54a4,4,0,0,1-.75,1.34c2.24,1.74,3.36,4.18,2.64,6.34a4.41,4.41,0,0,1-1.41,2c2.15,1.31,3.28,3.65,2.57,5.77-.85,2.56-4,3.81-7,2.8S2311.13,1399.39,2312,1396.84Z" transform="translate(-56.52 -58.14)"/><path class="cls-14" d="M2219.86,1116.7c4.95,7.73,3.84,17.28-2.49,21.34s-15.47,1.07-20.42-6.66-3.83-17.28,2.49-21.33S2214.91,1109,2219.86,1116.7Z" transform="translate(-56.52 -58.14)"/><path class="cls-15" d="M2209.57,1133.45a2.06,2.06,0,0,0,.86-.32c3.86-2.56,5.49-6.4,4.37-10.25a9.68,9.68,0,0,0-8.78-7,2,2,0,0,0-.08,4,5.72,5.72,0,0,1,5,4.06c.63,2.15-.34,4.21-2.73,5.8a2,2,0,0,0,1.36,3.66Z" transform="translate(-56.52 -58.14)"/><path class="cls-3" d="M283.18,1434.83a73.92,73.92,0,1,1-100.32-29.39A73.93,73.93,0,0,1,283.18,1434.83Z" transform="translate(-56.52 -58.14)"/><path class="cls-4" d="M241.62,1522.78l-6.76-12.35c-7.16,3.76-15.7,5.57-21.65,4.85l-1.55-9.8a37.19,37.19,0,0,0,20.49-4.37c8.68-4.75,11.81-13,8-19.95-3.68-6.72-10.72-8.28-21.78-7-15.15,1.93-25.93.52-31.75-10.12-5.55-10.15-2.55-21.8,7.7-29.79l-6.76-12.36,7.59-4.14,6.49,11.86a37.13,37.13,0,0,1,18.24-4.41l1.35,9.74a33.73,33.73,0,0,0-17.68,4.27c-9.42,5.15-9.89,12.72-7.22,17.61,3.48,6.36,9.75,7.07,22.8,5.65,15.4-1.75,25.24,1.13,31.19,12,5.29,9.66,3.51,22.39-7.95,31.36l6.95,12.72Z" transform="translate(-56.52 -58.14)"/><path class="cls-3" d="M2609.9,1209.65a73.92,73.92,0,1,1-35-98.51A73.93,73.93,0,0,1,2609.9,1209.65Z" transform="translate(-56.52 -58.14)"/><path class="cls-4" d="M2514.28,1227.53l6-12.72c-7.24-3.59-13.72-9.46-16.63-14.7l7-7a37.13,37.13,0,0,0,15.55,14c8.94,4.26,17.44,2,20.85-5.2,3.29-6.93.42-13.54-7.1-21.75-10.44-11.15-15.62-20.71-10.4-31.66,5-10.45,16.17-14.85,28.65-11.23l6.05-12.71,7.8,3.71-5.81,12.21c7.44,3.85,11.64,8.32,14.27,12.2l-7.1,6.81a33.72,33.72,0,0,0-13.82-11.83c-9.7-4.61-16.1-.56-18.5,4.48-3.11,6.54,0,12,8.78,21.78,10.45,11.45,13.88,21.11,8.55,32.32-4.73,9.94-16.09,16-30.07,11.93l-6.23,13.09Z" transform="translate(-56.52 -58.14)"/><path class="cls-2" d="M2375.59,458.62a73.92,73.92,0,1,1-97.44-37.85A73.92,73.92,0,0,1,2375.59,458.62Z" transform="translate(-56.52 -58.14)"/><path class="cls-3" d="M2326.67,542.7,2321,529.81c-7.46,3.13-16.13,4.21-22,3l-.7-9.9a37.22,37.22,0,0,0,20.79-2.6c9.06-4,12.88-11.92,9.67-19.19-3.09-7-10-9.17-21.1-8.84-15.26.63-25.88-1.7-30.77-12.8-4.67-10.58-.68-21.94,10.22-29l-5.68-12.89,7.91-3.48,5.45,12.37a37.37,37.37,0,0,1,18.55-2.84l.52,9.83a33.74,33.74,0,0,0-18,2.74c-9.83,4.33-10.94,11.83-8.69,16.93,2.92,6.63,9.1,7.87,22.22,7.58,15.5-.43,25.06,3.28,30.06,14.63,4.44,10.08,1.58,22.61-10.61,30.57l5.85,13.27Z" transform="translate(-56.52 -58.14)"/><path class="cls-2" d="M80.86,918.19l48.8-91s59.53,5.09,86.85,74.07c16.94,42.76,74.43,64.95,74.43,64.95l-49.06,91.51s-75-20.08-93.58-69.29C128.7,936.36,80.86,918.19,80.86,918.19Z" transform="translate(-56.52 -58.14)"/><path class="cls-4" d="M214.61,973.71c-16.18,13.6-42.16,9.32-58-9.55s-15.62-45.21.56-58.8,42.16-9.33,58,9.55S230.79,960.11,214.61,973.71Z" transform="translate(-56.52 -58.14)"/><path class="cls-2" d="M2016.31,327.28l-68.69-77.14s25.26-54.15,99.44-56.07c46-1.19,86.58-47.54,86.58-47.54l69.05,77.55s-44.68,63.55-97.26,64C2049.82,288.61,2016.31,327.28,2016.31,327.28Z" transform="translate(-56.52 -58.14)"/><path class="cls-4" d="M2114.45,220.79c7.2,19.87-5.75,42.79-28.93,51.2s-47.82-.9-55-20.77,5.75-42.78,28.93-51.19S2107.24,200.92,2114.45,220.79Z" transform="translate(-56.52 -58.14)"/><path class="cls-2" d="M2467.48,1483.81l11.21-83.52s46.94-13.16,87.58,31.72c25.18,27.82,75.46,28.31,75.46,28.31l-11.27,84s-63.09,6.15-91.35-26.14C2509.23,1484,2467.48,1483.81,2467.48,1483.81Z" transform="translate(-56.52 -58.14)"/><path class="cls-4" d="M2585.56,1487.93c-8.46,15-29.53,19.19-47.06,9.32s-24.87-30.07-16.41-45.09,29.54-19.19,47.07-9.32S2594,1472.91,2585.56,1487.93Z" transform="translate(-56.52 -58.14)"/><path class="cls-2" d="M1387.77,714.6l-11.58-86.26s-48.48-13.59-90.44,32.76c-26,28.73-77.94,29.23-77.94,29.23l11.65,86.72s65.15,6.35,94.33-27C1344.65,714.79,1387.77,714.6,1387.77,714.6Z" transform="translate(-56.52 -58.14)"/><path class="cls-4" d="M1265.82,718.85c8.74,15.51,30.5,19.82,48.61,9.62s25.68-31.05,16.94-46.56-30.51-19.82-48.61-9.62S1257.08,703.33,1265.82,718.85Z" transform="translate(-56.52 -58.14)"/><rect class="cls-4" x="528.84" y="1368.3" width="506.8" height="162.58" rx="35.12"/><path class="cls-24" d="M742.79,1484.86v45.74a22.32,22.32,0,0,1-22.32,22.32H634a22.32,22.32,0,0,1-22.31-22.32v-45.74A22.31,22.31,0,0,1,634,1462.55h86.5a22.32,22.32,0,0,1,22.32,22.31Z" transform="translate(-56.52 -58.14)"/><path class="cls-5" d="M919.1,1526.34H775.57A18.61,18.61,0,0,1,757,1507.73h0a18.61,18.61,0,0,1,18.61-18.6H919.1a18.61,18.61,0,0,1,18.61,18.6h0A18.61,18.61,0,0,1,919.1,1526.34Z" transform="translate(-56.52 -58.14)"/><path class="cls-21" d="M1047.26,1526.34H975.33a18.61,18.61,0,0,1-18.6-18.61h0a18.6,18.6,0,0,1,18.6-18.6h71.93a18.6,18.6,0,0,1,18.6,18.6h0A18.61,18.61,0,0,1,1047.26,1526.34Z" transform="translate(-56.52 -58.14)"/><path class="cls-13" d="M733.88,1467l-112.21,82.19a22.29,22.29,0,0,1-10-18.62v-45.74A22.31,22.31,0,0,1,634,1462.55h86.5A22.16,22.16,0,0,1,733.88,1467Z" transform="translate(-56.52 -58.14)"/><circle class="cls-25" cx="698.76" cy="1527.2" r="15.01" transform="translate(-101.08 -36.96) rotate(-1.68)"/><path class="cls-5" d="M731.59,1527.2a15,15,0,1,1-15-15A15,15,0,0,1,731.59,1527.2Z" transform="translate(-56.52 -58.14)"/><rect class="cls-4" x="528.84" y="1565.29" width="506.8" height="162.58" rx="35.12"/><path class="cls-17" d="M742.79,1681.85v45.74a22.32,22.32,0,0,1-22.32,22.32H634a22.32,22.32,0,0,1-22.31-22.32v-45.74A22.31,22.31,0,0,1,634,1659.53h86.5a22.34,22.34,0,0,1,22.32,22.32Z" transform="translate(-56.52 -58.14)"/><path class="cls-5" d="M919.1,1723.32H775.57a18.61,18.61,0,0,1-18.61-18.6h0a18.61,18.61,0,0,1,18.61-18.61H919.1a18.61,18.61,0,0,1,18.61,18.61h0A18.61,18.61,0,0,1,919.1,1723.32Z" transform="translate(-56.52 -58.14)"/><path class="cls-21" d="M1047.26,1723.32H975.33a18.6,18.6,0,0,1-18.6-18.6h0a18.61,18.61,0,0,1,18.6-18.61h71.93a18.61,18.61,0,0,1,18.6,18.61h0A18.6,18.6,0,0,1,1047.26,1723.32Z" transform="translate(-56.52 -58.14)"/><path class="cls-18" d="M733.88,1664l-112.21,82.19a22.29,22.29,0,0,1-10-18.62v-45.74A22.31,22.31,0,0,1,634,1659.53h86.5A22.17,22.17,0,0,1,733.88,1664Z" transform="translate(-56.52 -58.14)"/><path class="cls-13" d="M713.77,1724.19a15,15,0,1,1-15-15A15,15,0,0,1,713.77,1724.19Z" transform="translate(-56.52 -58.14)"/><path class="cls-5" d="M731.59,1724.19a15,15,0,1,1-15-15A15,15,0,0,1,731.59,1724.19Z" transform="translate(-56.52 -58.14)"/></g></g></svg>