<?xml version="1.0" encoding="utf-8"?>
<!-- Generator: Adobe Illustrator 19.0.1, SVG Export Plug-In . SVG Version: 6.00 Build 0)  -->
<svg version="1.1" id="Layer_1" xmlns="http://www.w3.org/2000/svg" xmlns:xlink="http://www.w3.org/1999/xlink" x="0px" y="0px"
	 viewBox="0 0 512 156" style="enable-background:new 0 0 512 156;" xml:space="preserve">
<style type="text/css">
	.st0{fill:#AD2184;}
</style>
<g>
	<path class="st0" d="M44.6,44.5V109c0,4.3,0.8,8.4,2.3,12c1.7,3.7,3.8,7.1,6.5,10.3H41.9c-5.9,0-11.5-1.5-16.8-4.5
		c-11-5.2-16.6-14.5-16.6-28.1V44.5c0-6.4,1.6-11.2,4.8-14.5c3.2-3.5,7.7-5.3,13.5-5.3c5.3,0,9.7,1.8,13,5.3
		C43,33.3,44.6,38.2,44.6,44.5z M173.8,35c10.5,8.2,15.7,20.4,15.5,36.6v39.9c0,6.2-1.5,11-4.5,14.3c-3.3,3.7-7.9,5.5-13.5,5.5
		c-5.5,0-9.9-1.8-13.3-5.5c-3-3.3-4.5-8.1-4.5-14.3V71.6c0-5.8-1.4-10.5-4.3-14c-3.2-3.7-7.9-5.5-14-5.5c-6.2,0-10.9,1.8-14,5.5
		c-2.8,3.5-4.3,8.2-4.3,14v39.9c0,6.2-1.5,11-4.5,14.3c-3.3,3.7-7.8,5.5-13.3,5.5c-5.7,0-10.2-1.8-13.5-5.5c-3-3.3-4.5-8.1-4.5-14.3
		V71.6C81,55.2,86.1,43,96.5,35c9-6.9,21.9-10.3,38.6-10.3C151.8,24.7,164.7,28.1,173.8,35z M395.7,30c3.2,3.5,4.8,8.4,4.8,14.5
		v39.9c0,16.2-5.2,28.3-15.5,36.4c-9.2,7-22.1,10.5-38.6,10.5c-15.2,0-27.4-3-36.6-9c-8.9,6-20.8,9-35.9,9
		c-16.7,0-29.7-3.5-38.9-10.5c-10.2-8-15.3-20.1-15.3-36.4V44.5c0-6.4,1.5-11.2,4.5-14.5c3.2-3.5,7.7-5.3,13.5-5.3
		c5.5,0,9.9,1.8,13.3,5.3c3,3.3,4.5,8.2,4.5,14.5v39.4c0,6.2,1.4,11,4.3,14.3c3.2,3.7,7.9,5.5,14,5.5c6.2,0,10.8-1.8,13.8-5.5
		c2.8-3.3,4.3-8.1,4.3-14.3V44.5c0-6.4,1.6-11.2,4.8-14.5c3.2-3.5,7.7-5.3,13.5-5.3c5.5,0,9.9,1.8,13.3,5.3c3,3.3,4.5,8.2,4.5,14.5
		v39.4c0,6.2,1.4,11,4.3,14.3c3.2,3.7,7.9,5.5,14,5.5c6.2,0,10.8-1.8,13.8-5.5c2.8-3.3,4.3-8.1,4.3-14.3V44.5
		c0-6.4,1.6-11.2,4.8-14.5c3.3-3.5,7.7-5.3,13-5.3C388,24.7,392.5,26.5,395.7,30z M436.8,46.8c0-4.3-0.8-8.4-2.3-12
		c-1.7-3.5-3.8-6.9-6.5-10h11.5l5,0.8c4.3,0.3,8.2,1.5,11.5,3.5c11.2,5.2,16.8,14.6,16.8,28.3v54.2c0,6.2-1.7,11-5,14.3
		c-3,3.7-7.4,5.5-13.3,5.5c-5.4,0-9.7-1.8-13-5.5c-3.2-3.3-4.8-8.1-4.8-14.3V46.8z M484.9,27.5c0.7,0,1-0.4,1-1.3v-0.5
		c0-0.7-0.3-1-1-1h-11c-0.7,0-1,0.3-1,1v0.5c0,0.8,0.3,1.3,1,1.3h4v11.8c0,0.8,0.3,1.3,1,1.3h0.5c1.2,0,1.7-0.4,1.5-1.3V27.5H484.9z
		 M503.5,26.2L503,25l-0.8-0.3H501l-1,0.3c0,0.2,0,0.3-0.1,0.5c-0.1,0.2-0.2,0.3-0.4,0.3L496,34l-3-8.3l-0.3-0.8l-1.3-0.3h-1.3
		c-1.2,0-1.7,0.5-1.5,1.5v13c0,0.8,0.4,1.3,1.3,1.3h0.3c0.8,0,1.3-0.4,1.3-1.3V28.5l3.5,8.3l0.3,0.3l0.8,0.5l1.3-0.5l0.5-0.3
		l3.3-8.3v10.8c0,0.5,0.1,0.8,0.3,1c0.2,0.2,0.4,0.3,0.8,0.3h0.3c0.8,0,1.3-0.4,1.3-1.3V26.2z"/>
</g>
</svg>
