<?xml version="1.0" encoding="utf-8"?>
<!-- Generator: Adobe Illustrator 11.0, SVG Export Plug-In . SVG Version: 6.0.0 Build 78)  -->
<!DOCTYPE svg PUBLIC "-//W3C//DTD SVG 1.0//EN"    "http://www.w3.org/TR/2001/REC-SVG-20010904/DTD/svg10.dtd" [
	<!ENTITY ns_flows "http://ns.adobe.com/Flows/1.0/">
	<!ENTITY ns_extend "http://ns.adobe.com/Extensibility/1.0/">
	<!ENTITY ns_ai "http://ns.adobe.com/AdobeIllustrator/10.0/">
	<!ENTITY ns_graphs "http://ns.adobe.com/Graphs/1.0/">
	<!ENTITY ns_vars "http://ns.adobe.com/Variables/1.0/">
	<!ENTITY ns_imrep "http://ns.adobe.com/ImageReplacement/1.0/">
	<!ENTITY ns_sfw "http://ns.adobe.com/SaveForWeb/1.0/">
	<!ENTITY ns_custom "http://ns.adobe.com/GenericCustomNamespace/1.0/">
	<!ENTITY ns_adobe_xpath "http://ns.adobe.com/XPath/1.0/">
	<!ENTITY ns_svg "http://www.w3.org/2000/svg">
	<!ENTITY ns_xlink "http://www.w3.org/1999/xlink">
]>
<svg 
	 xmlns:x="&ns_extend;" xmlns:i="&ns_ai;" xmlns:graph="&ns_graphs;" i:viewOrigin="155.2212 494.8711" i:rulerOrigin="0 0" i:pageBounds="0 841.8896 595.2754 0"
	 xmlns="&ns_svg;" xmlns:xlink="&ns_xlink;" xmlns:a="http://ns.adobe.com/AdobeSVGViewerExtensions/3.0/"
	 width="286.199" height="148.752" viewBox="0 0 286.199 148.752" overflow="visible" enable-background="new 0 0 286.199 148.752"
	 xml:space="preserve">
	<metadata>
		<variableSets  xmlns="&ns_vars;">
			<variableSet  varSetName="binding1" locked="none">
				<variables></variables>
				<v:sampleDataSets  xmlns="&ns_custom;" xmlns:v="&ns_vars;"></v:sampleDataSets>
			</variableSet>
		</variableSets>
		<sfw  xmlns="&ns_sfw;">
			<slices></slices>
			<sliceSourceBounds  x="155.221" y="346.119" height="148.752" width="286.199" bottomLeftOrigin="true"></sliceSourceBounds>
		</sfw>
<?xpacket begin='﻿' id='W5M0MpCehiHzreSzNTczkc9d'?><x:xmpmeta xmlns:x='adobe:ns:meta/' x:xmptk='XMP toolkit 3.0-29, framework 1.6'>
<rdf:RDF xmlns:rdf='http://www.w3.org/1999/02/22-rdf-syntax-ns#' xmlns:iX='http://ns.adobe.com/iX/1.0/'>

 <rdf:Description rdf:about=''
  xmlns:pdf='http://ns.adobe.com/pdf/1.3/'>
 </rdf:Description>

 <rdf:Description rdf:about=''
  xmlns:tiff='http://ns.adobe.com/tiff/1.0/'>
 </rdf:Description>

 <rdf:Description rdf:about=''
  xmlns:xap='http://ns.adobe.com/xap/1.0/'
  xmlns:xapGImg='http://ns.adobe.com/xap/1.0/g/img/'>
  <xap:CreateDate>2006-09-01T13:31:08Z</xap:CreateDate>
  <xap:ModifyDate>2006-09-01T13:31:08Z</xap:ModifyDate>
  <xap:CreatorTool>Illustrator</xap:CreatorTool>
  <xap:Thumbnails>
   <rdf:Alt>
    <rdf:li rdf:parseType='Resource'>
     <xapGImg:format>JPEG</xapGImg:format>
     <xapGImg:width>256</xapGImg:width>
     <xapGImg:height>136</xapGImg:height>
     <xapGImg:image>/9j/4AAQSkZJRgABAgEASABIAAD/7QAsUGhvdG9zaG9wIDMuMAA4QklNA+0AAAAAABAASAAAAAEA&#xA;AQBIAAAAAQAB/+4ADkFkb2JlAGTAAAAAAf/bAIQABgQEBAUEBgUFBgkGBQYJCwgGBggLDAoKCwoK&#xA;DBAMDAwMDAwQDA4PEA8ODBMTFBQTExwbGxscHx8fHx8fHx8fHwEHBwcNDA0YEBAYGhURFRofHx8f&#xA;Hx8fHx8fHx8fHx8fHx8fHx8fHx8fHx8fHx8fHx8fHx8fHx8fHx8fHx8fHx8f/8AAEQgAiAEAAwER&#xA;AAIRAQMRAf/EAaIAAAAHAQEBAQEAAAAAAAAAAAQFAwIGAQAHCAkKCwEAAgIDAQEBAQEAAAAAAAAA&#xA;AQACAwQFBgcICQoLEAACAQMDAgQCBgcDBAIGAnMBAgMRBAAFIRIxQVEGE2EicYEUMpGhBxWxQiPB&#xA;UtHhMxZi8CRygvElQzRTkqKyY3PCNUQnk6OzNhdUZHTD0uIIJoMJChgZhJRFRqS0VtNVKBry4/PE&#xA;1OT0ZXWFlaW1xdXl9WZ2hpamtsbW5vY3R1dnd4eXp7fH1+f3OEhYaHiImKi4yNjo+Ck5SVlpeYmZ&#xA;qbnJ2en5KjpKWmp6ipqqusra6voRAAICAQIDBQUEBQYECAMDbQEAAhEDBCESMUEFURNhIgZxgZEy&#xA;obHwFMHR4SNCFVJicvEzJDRDghaSUyWiY7LCB3PSNeJEgxdUkwgJChgZJjZFGidkdFU38qOzwygp&#xA;0+PzhJSktMTU5PRldYWVpbXF1eX1RlZmdoaWprbG1ub2R1dnd4eXp7fH1+f3OEhYaHiImKi4yNjo&#xA;+DlJWWl5iZmpucnZ6fkqOkpaanqKmqq6ytrq+v/aAAwDAQACEQMRAD8A9U4q7FXYq7FXYq7FXYq7&#xA;FXYq7FXYq7FXYq7FXYq7FXYq7FULqel2GqWUllfRCa2kpzQkjoaggqQRlWbBDLHhmLDdg1E8MxOB&#xA;qQYTqP5XTw1k8vatcWTjdYJJH4fQ6UZfuOaTL2IY74ZmPl+0O/wdvxltnxxl50PuP7GJanqP5l+X&#xA;HAvbu6SOtEndhPE3+zbmPoO+anNl1unPqlL7x+l3WDB2fqh6Ixvu+k/LZVsfzd80QEC5WC8XuXTg&#xA;30GMqP8Ahcni7ezx51L4fqYZvZvTy+nij8b+9lOlfnDolwQmo20tkx6uv76MfcFf/hc2mD2gxy2m&#xA;DH7Q6jUezOaO+Mif2H9X2s007V9M1KH1rC6juY+5jYEj/WHUfTm5w6jHlFwILoM+myYjU4mJ80Xl&#xA;zS7FXYq7FXYq7FXYq7FXYq7FXYq7FXYq7FXYq7FXYq7FXYq7FXYq7FXYq7FXYq7FXYq7FVssUU0b&#xA;RSoskbijo4DKR4EHBKIkKO4TGRibGxYB5p/Kewuw9zohFpc9Tat/ct/q90P4fLOf1vYUZerF6T3d&#xA;P2PS9n+0U4enN6o9/X9v3vKb/T73T7p7S9haC4jNHjcUPz9x7jOXy4pY5cMhRD2WHNDLESgbiVlr&#xA;d3VpMs9rM8Ey/ZkjYow+kUyMJyibiaKcmOMxUgCPNn3lz83dQtikGtRfW4dh9ZjAWYDxK7K/4Zvt&#xA;J29OO2QcQ7+v7Xm9b7Nwl6sJ4T3Hl+z7Xp+k61pmr2outPuFniP2uP2lPgyndT886bT6mGaPFA2H&#xA;ktTpcmGXDMUUbl7juxV2KuxV2KuxV2KuxV2KuxV2KuxV5h/zkLqF/YeS7KaxuZbWVtSiRpIHaNip&#xA;gnPElSDSoGbDs2IlkNi9v0hwdfIiAo9f1vAbDzt5qtL63uxq15IbeVJRG9xKytwYNxYFiCDTfN1L&#xA;TwIIofJ1Uc8wbsvsexvIL2yt723PKC6jSaFvFJFDKfuOctKJBovRA2LeJ/8AORXm3UbLUNJ0jTry&#xA;a0dYnurkwSNGWEjcIwShHT03+/Nt2ZhBBkRbre0MpBABpgn5Z+ZPMVx5+0OC41S7mhkulWSKSeVl&#xA;YUOxUsQczNXigMUiAOTi6bJI5BZL6tznHeuxV2KuxV2KuxV2KuxV2KuxV2KpL5o8qaZ5hsvRul4X&#xA;CA/V7pQOcZ/iviuYWt0MNRGpc+hc/Qdo5NNO48uo6H8d7wnXNEv9F1GWwvU4yx7qw+y6no6nuDnD&#xA;anTzwzMJcw+i6TVQz4xOHI/Z5IDKHIRukazqWkXi3enztDMuxp9lh/Ky9GHzy7BqJ4pcUDRaNTpc&#xA;eeHDMWHtXkvz1Y+YofRcC31ONay29dmA6vGT1Ht1H452fZ3acdQKO0+79TwPanZM9KbHqxnkf0H8&#xA;bsozaOodirsVdirsVdirsVdirsVdirsVeUf85Jf8oNY/9tOL/qHnzZdl/wB4f6v6Q4HaP92Pf+t8&#xA;/wAmlkeXINVUEhrya1lbsOMUUkY+nk/3ZuhP18PlbqeD0cXm+mPyN139K/l7ZRu3KfTWeyl33oh5&#xA;R/8AJN1H0ZoO0MfDlPnu7rRT4sY8tnh35j3c/mn80723tTzMt2mm2gG4/dkQVHsXBb6c2+lAx4QT&#xA;3W6zUHxMpA76Uvy+t47f81dLt46+nDqBjSu5orMBX7sOpN4CfJdOKzAeb3r83fPur+TdEtbvTbOO&#xA;d7uYwG4mLFIm4ll+BePIsA1Pi7d802i08csiCeTtNVnOONgPFZvzn/NpON1JfNFbuaoDZwCI+wZo&#xA;q/8ADZthocHKvtdadZm5/oes/lH+bb+bmm0vVY44NZgT1UaKqxzRggMQpJo61FR9IzW63R+FvH6X&#xA;P0uq8TY/UhPzd/NfzF5N1yzsNMt7OaG4tRO7XKSswYyOlAUkjFKL4ZLRaOGWJJJ5sdXqpY5ACmIe&#xA;Yv8AnIrXpIrKLRIIIJBbxNqFxJGW5XLIDKkSMx4xqxIHKpOZOLsyO/F8Pc4+TtCW3C9S80/mXpnl&#xA;XytYanqI+sajfQRvbWUZCtK5RWc134Ipbc0zX4dKckyByDn5dQMcQTzLx64/P/8AMW9nkksYbaGF&#xA;AWMUUDS8V8WZix+nbNoOzsQ5kuuOvyHkGUeQP+cgpb7UYdM80QwwC4YRw6jDVEVjsPWViwAJ/aBA&#xA;Hcdxjans2hcPk34NfZqT2PVNTsNL0+fUNQmW3s7ZDJNM3RVHy3JPQAdc1cIGRoc3YSkIizyeCeZf&#xA;+cjtdmunj8vWcNpZKaRzXKmWdgO5AYItfCh+ebnF2XED1Gy6rJ2jK/SNkb+Wn5x+edf832Oi3otZ&#xA;7a7Z/WcRFHRI42kJUqwH7PcHI6rQ44YzIXsz02snOYiae8ZpnaMd87eU4PMOlGNQFv4AXs5f8ruh&#xA;P8rf25ru0tANRj/pjl+p2nZXaJ02S/4D9Q/T8Hgs0MsMrwyoUljYpIjChDKaEEZwkokGjzfR4yEg&#xA;CNwVmBKtaXdzZ3Md1ayNDcQsGjkU0IIyUJmBEomiGGTHGcTGQuJe8eSfNkPmLShK1EvoKJdxDoG7&#xA;Ov8Aktnddm64ajHf8Q5/rfOe1ezjpclfwHkf0fBkObF1jy7zv+ZV9ba3HaaLKBDYv/pL0DLLINmQ&#xA;/wCSvTbv8hnLdpdsTjl4cR2jz8z+p6/srsKE8JllG8+XkO/3s/8ALuvWeu6VDqFtsH2liJqY5B9p&#xA;D8v1b50Gk1Uc+MTj/YXm9bo5afIYS/tHemWZLiOxV2KuxV2KuxV2KvKP+ckv+UGsf+2nF/1Dz5su&#xA;y/7w/wBX9IcDtH+7Hv8A1vOvLGh/pX8k/MjKvKbT79L2LatPSiQSH/kUz5nZsnDqI+YpxMUOLBLy&#xA;Noj8j/OaaDD5lhncCNbBr+BW6GW2BHEe7+oPuyPaGDj4a76+adDm4eL3WgfyL0eTV/zFgvJv3iae&#xA;kt7Mzd3+wn085A30ZPtCfDioddmGhhxZL7t0B5H/APJvWH/bTf8A4m2T1H9wf6qMP998X0V5+8z+&#xA;U/L+lw3nmJFnCyiSxtOCySSTRjYxo21VDfaOw+dM0enxTmag7fPlhAXJ475i/wCciL/U7a5sINDt&#xA;l0+6jeGSO5d5mZXHE/Z9ID7s2mLswRIJkbddk7QJ2rZiv5LzyQ/mXopQ05vLGw7FWgcHMnXC8Mvx&#xA;1cfRn96GUf8AOSv/AClumf8AMAP+T0mY/ZX0H3t/aP1D3Mu/Jb8uPK0vk621rU9Pg1G+1EyMTdRr&#xA;MkcaSMiqiOCo+xUmld8xddqp+IYg0A5Gj08OAEiyXmf55ag1z+YV5aLRbXTYoLS1jUUVEESuQqil&#xA;Pjc5sOz41iB73C10ryEdz3r8qfL1povkTSo4olWa8t47u7kAHJ5J19T4j34huI+WabWZTPIfJ2um&#xA;xiOMPn785/L9ponn++hs4xDa3SpdxRLQKvqj4wAOg9RWoM3WhyGeIXzGzqdZjEchrqyX8yfNmoXf&#xA;5T+TbZ5GP6SR2u3PVzYcYhyPerNy+YzH0uEDPM936W/U5ScUR3/oTX/nHTydpV1a33mS8hS4uIZ/&#xA;qdmsgDCMqiSO4B25H1FAPbfxyvtPPIEQHvZ9n4gQZF7e2n2D3aXjW0TXkYIjuSimRQRQgPTkKjbN&#xA;RxGqvZ2dC7V8CXYq8f8Azd0BbTVYdVhWkV8Cs1OgmQdf9kv6jnIdvaXgyDIOUvve49m9Zx4ziPOH&#xA;L3H9TAM0L0jsVTvyd5hk0HXYLyp+rsfSu0HeJiOW3iv2hmZoNWcGUS6dfc4HaeiGowmP8XMe97xq&#xA;kVxdaRdR2UvC4ngdbaZTSjsh4EH553ecGeOQidyDT5zp5RhliZi4iQsfHd84XEE1vPJBOhjmiYpI&#xA;jdQymhBzzmUTEkHmH1OExKII3BZP+XfmltD1pY53pp14RHcAnZTX4ZP9j39s2fZWt8DLv9Euf63U&#xA;9tdn/mMVj647j9T3TO5fO3Yq7FXYq7FXYq7FXlH/ADkl/wAoNY/9tOL/AKh582XZf94f6v6Q4HaP&#xA;92Pf+tLP+cdIYr3ypr+n3Ch7aacJIvcrNDwcfcMs7TNTiQw7PFwI83huqWV1pOq3unSMVmtZZbaa&#xA;lRXgxRvoNM28JCUQe91comJIe8/842aH6Gg6nrLrR72dbeIkb+nbrUkHwLSU/wBjmm7UyXIR7na9&#xA;nQqJl3vMfI//AJN6w/7ab/8AE2zYaj+4P9Vw8P8AffFNP+cg9Qubj8wZLaWohsraGOBe1HX1Wb5l&#xA;np9GV9mxAxX3llr5E5K7g9A8p6j+Vfl38uILpbmwe/ks+d0SY3vHuXj+OPgaybOeIHQDfpvmFmhm&#xA;yZao1fwpzMUsUMd2OXxeS/k+wH5k6ESaD1nG/iYnAzZ67+5k6/R/3oZZ/wA5K/8AKW6Z/wAwA/5P&#xA;SZjdlfQfe39o/UPc9X/Jr/yWeh/8Y5f+T8ma3Xf30nYaT+6DxL8/NFnsPzBuLxkpb6pFFPCw6Eog&#xA;icV8eSVPzzbdnZAcVdzq9fCsl971v8qvzG8t33kuxt7zUILO/wBLt0t7qG4kWM8IV4LIC5HJSigk&#xA;joc1ms0sxkJAsF2Gl1ETAWdw8L/NPzRbeaPO15f2PJ7IBLazYggukYpyAO/xOSR7ZuNHhOPGAebq&#xA;9VlE52OTNvzZ8m3+l/lp5QLIf9xCPDfqN+El4EkNfYSIVr4kZiaPOJZp/wBLl8HK1eExxR8v0qn5&#xA;A/mBoWjWt9oOsXSWKzz/AFq0uJiEiLMipIrOdlNI1Irt1+kdo6aUiJRFroM8YgxJp7RbecfKt3qU&#xA;WmWmrWt1fzBmjt4JVlaiLyNeBYD4d981RwTAsg07IZYk0CLTjKmx2Ksb/MTTF1DyjfLSslsv1mM+&#xA;Bi3b/hOQzW9r4fE08u+O/wAv2W7XsXP4epj3S9Pz/bTwTOEfR3Yqg9U1KKwtTK+7naNP5m/p45tO&#xA;yOy563MIR2iPqPcP19zqu2O1YaLCZy3kfpHef1d7Ovyd/OK7u9Rh8t+YHj4SokOl3IASjoKCKTx5&#xA;DZT47b1z0vP2ZHDjHh3UfufKsfaMs2QmdXI3t3sk/NfyhzX/ABBZJ8S0W/RR1HRZfo6N9HvnD9ua&#xA;D/LR/wA79b3fs72lX7iZ/q/q/U8whhkmmSGJS0kjBEUdSzGgGczEEmg9dKQiCTyD6VsLd7axtreR&#xA;/UeGJI2kP7RRQCfppnpGGBjARPQAPlGaYlMyAqySr5Y1uxV2KuxV2KuxViP5neRZvOmgW+lxXa2T&#xA;Q3SXRldDICEjkTjQFf8AfmZWk1HhS4qvZx9Tg8SNXW6G/K38up/JNjfW018t6byVJAyRmPjxUrTd&#xA;mrh1ep8Ug1VI02n8IEXbF/PH5CyeYvM97rVpqkdlHeFXe3aEvRwgVzUOv2iOWZGn7R4ICJF00Z9D&#xA;xyMgat6L5M8tReWfLFhokcgm+qIRJMBx5u7F3alT1ZjmDny+JMy73Mw4+CIj3POtB/Im80vzlb+Y&#xA;W1eOWOC6a6NuIWBIYk8eXM+Phmdk7QEsfBXRxIaIxnxX1ZH+Zn5T6b50WK6Sb6jrFuvpx3XHmrx7&#xA;kRyLUdCdmHT3yjS6w4tucW3U6UZN+Ref6P8A8406j9dRtY1aEWSkF0tFdpHHdQ0gQJ86H5ZnT7VF&#xA;ekb+biQ7ON+o7Jx5c/IG60TzTZazFrMbwWVyJlgMDcjGG+xy5nfjtWmU5e0ROBjw8w2Y9DwzEr5J&#xA;1+aH5RXXnXWLXUIdSSyW3txbmN4jISQ7PyqGX+bKtJrRiiRVtup0niEG6Zf5J8uSeW/K9hokk4uX&#xA;s1dTOq8A3KRn+ySafa8cxs+XxJmXe5GHHwREe5Z5y8l6J5t0o6fqkZ+E8re5Sglhf+ZGIPXuDscc&#xA;GeWOVxRlwxyCi8ZvP+caNfW4YWer2ktvX4HmWSN6e6qJB+ObWPasa3BdcezZdCzPyD+RGj+Xr2LV&#xA;NUuP0pqMBD26cOFvE46NxJYuw7E0p4V3zF1HaEpigKDkYNFGBs7l6TqOn2Wo2M9jfQrcWlwhjmhc&#xA;VVlOYEZGJsc3NlEEUXifmD/nGpnuml8v6qsdu5qtteKxKewlSvIfNfpObbH2pt6h8nWZOzt/SUR+&#xA;Xv5G+aPLvmyy1q81Gz9KzZz6dv6sjOro0ZX40iC1DeJyOp7QhkgYgHdlp9FKExIkbPbM1LsnYqpX&#xA;dutxazW7fZmRo2r4MCP45DJDiiY94Z458MhLuL5mIIJBFCNiDnmr6yo3NzDbQPPM3GNBUn+AzI0m&#xA;lnnyDHAXKTj6vV49PjOTIajFgup6jNf3RmfZekadlXPY+yuzIaPCMcefU95/HJ8W7W7Uya3MckuX&#xA;8I7h+OaFVmVgykqymqsNiCO4zZOsfU/5RefovOPlt7PUSr6tYqIb9Gp++jYUWWh68hs/v8xnN6/S&#xA;CBqvRL8U7/RakyF/xR/Fqehflq+nedGvGAfSLb9/ZMSCTI32UI6/uzvX2Gchpexzj1PEf7uO4/Hk&#xA;9jq+3Rl0nB/lZbS93f8AH9aL1LzX6H5mWOnK/wDowh+qzrXb1bijrt8xGPvy7NruHXRh/DXCfefw&#xA;GjB2dxdnyyV6r4h7o7frZ1m9eeQOr65o+jWy3Wq3kVlbu4iSWdgilyCwUE96KTk4Y5SNRFsZzERZ&#xA;NJR/ysv8v/8AqYLH/kcn9cs/K5f5pa/zGP8AnB3/ACsv8v8A/qYLH/kcn9cfyuX+aV/MY/5wRWme&#xA;dvKOq3iWWnava3d3ICUgilVnIUVNAPADIzwTiLIIDKOaEjQITvKmx2KqUt1awsFmmSNiKgOwU0+k&#xA;4QCUWqRyRyIHjYOh6MpqD9IwJbxV2KuxV2KuxV2KuxV2KuxV2KuxV2KuxV2KuxV2KvmW6/3pm/12&#xA;/XnmcuZfWsf0j3MJ8y6jNPeNbbrDAaBfFv5j/DPU/ZXszHh04zc8mQc+4d36/P3PlPtZ2rkzag4e&#xA;WPGeXee/9Xl70mzqXk3Yqyn8s9ev9E876VcWZJM88drPFvSSKdwjKafOo9wMx9XjE8ZB97fpshjk&#xA;FPr6V/TieSleClqfIVzlZGgS9FEWafN1zqt3cas+qO3+lPN9Y5Ds/LkKewzzmeaUpmZ+q7fVIaeM&#xA;cQxj6ap9J56Q+VML/NfyPqPnLy7b6ZYTw280N4lyzz8gpVYpEIHBWNayDMvR6gYpknucbVYTkjQ7&#xA;3iPm38j/ADF5Z8v3et3d9aTW9p6fOOIy8z6kixCnJFHV/HNvh18ckhEA7usy6KUImRISHyF+X+p+&#xA;dLy6tNPuILd7WMSu0/MAhm40HBWy7UakYgCRzasGnOQkDo9c/Lj8k/MHlbzba61eX1pNbwJKrRwm&#xA;TmTJGyCnJFHVvHNZqtfHJAxALsNPo5Y58RL1i61rR7SYQXV/b28x6RSyojbiv2WIPTNYISPIOeZA&#xA;cyjFZWUMpBUioI3BByLJ86f85K/8pbpn/MAP+T0mb3sr6D73T9o/UPc9X/Jr/wAlnof/ABjl/wCT&#xA;8ma3Xf30nYaT+6DMLi5traIy3MqQxDYySMEXf3NBmKATybyaUrLU9NvgWsruG6VftGGRJAO2/EnD&#xA;KBHMKJA8kTkUuxVaksUhYI6uUPFwpBofA06Y0q7FVryxIVDuqlzRASBU+ArjSrsVdiq2aaKGJpZn&#xA;WOJBV5HIVQPEk7YQLVRstS06+VmsrqG6VftGGRZAPnxJwyiRzCBIHkrySRxoXkYIg6sxoB9JyKW8&#xA;VdirsVQmr3y2GlXl6xoLaGSUV8VUkD6TlOoy+HjlLuBb9Ni8TJGH84gPmvPOH1VJvMOjfW4vrEK/&#xA;6TGNwP21Hb5+GdX7M9uflp+FkP7qX+xPf7j1+byXtR2D+ah4uMfvoj/TDu946fJh/TPUnyhrFXtf&#xA;/OP/AOXpuLn/ABdqMf8Ao8BKaVGw+3INnm37J9lf8qvhmp7S1NDgHxdnoNP/ABn4PcotX02bU59L&#xA;jnVr+3RZJoADVValDWlO475z8dRAzOMH1jmHeS02SOMZCPRI0C8gvPKPH8yV0iJP9FlnW4UDYCA/&#xA;vWA/1QCuchk0Fazwh9Jlfw5vb4u0r0Hik+oRr/O5fte152rwLsVYL+eH/krta/6Nf+ouHMzQf30f&#xA;j9xcXW/3R+H3vNf+cZ/+O/rP/MIn/JzM/tX6Y+9w+zeZZN+en5m6hoQh8vaLKYL+5j9a8u0+3HEx&#xA;KqiH9l2oST1A6ddsfs/SCfqlyDdrdSYemPN5pof5Lee/MGijXYRAqXKmaCO5lZZ5wdwy/Cy/F2Ls&#xA;K9embDJrscJcLhQ0eSY4k2/JPz1qWheaI/LWpSP+jb6Q2y28pP8Ao91Wi8Qfs8m+Bh4mvbKtfpxO&#xA;HGOY+0NmjzmMuA8j96I/5yV/5S3TP+YAf8npMHZX0H3p7R+oe56R+XWtWeh/kzYaveE/V7K2nlcD&#xA;q1J5OKj3ZqAZgarGZ5zEdS5unmI4QT0DxBn87fmr5sdEb1JSGkSJ3K21rACB4GgFQKgFmObf93po&#xA;fiy6z155/jZS8xeU/OX5baxZXL3Kw3MgL2l7ZuxRihHNDyVD+0OSstCD3w4s2PPEivmjJinhIL6G&#xA;8v8A5i6fefl0vm++pEkELG+jX/f8Z4FFr/vx6cP9YZo8mmIy+GHb49QDj4y+e9c83eePzC15bKNp&#xA;ZfrL8bPSbdisKjelRUKaD7Tv+Azd48OPBG/tdRPLkzSr7E+0X8kvzEsNc0y4mt1jtvrUP1qa3uE5&#xA;xxc15saMrGi1+zXKcmvxSiR5dzdDRZIyB82Zfnf+auo6Ncjy3oUpt7xo1kv71P7yMPukcZ/ZYruW&#xA;8CKZi6DRiY45cujka3VGPpjzeX6N+WH5g+abBtbtrVriGUsUnuZlV5iOpT1DVt/2jt75sJ6vFjPC&#xA;S4MNNkyDiRXkD8yfMPkrW1stQed9JST0b/TZixMVDxZo1b7Dp4d+h8RHU6WOWNj6uhZYNTLHKjye&#xA;qf8AORN1y8hadPbS/BLqMLJJG2zI1vOQQR2Oa7swfvCD3fpDndoH92K7/wBbxvy1oXnvzrajRtMZ&#xA;7iw00mZkkkCQo8p6sW+07U+HvQH3zaZcmPEeI8y6/HDJlHCOQQdrceZfIXm1WZWtNU06RfXg5fC6&#xA;GjFGKkhkkQ5MiGaHeCwBlin5hkWqeXvzO8/Wlz5vlt2uLAmR7eH1AAscdQVt4idwvGmwqx8TlEMu&#xA;HCRj6/jm3Sx5co4+iP8AyN8+6pp3me00G6uXl0jUSYY4JGLLFMRWNo6/Z5MOJA23yHaGnjKBkB6g&#xA;z0WciQieRfS2aB3LsVYL+bmtC00FNOjak2oPRh3EUZDN97cR9+aLt7U8OIQHOf3B6L2c0vHmOQ8o&#xA;D7T+C8azj3unYqxnzHolOV9bLt1njH/Ex/HPQfZft+60+Y7/AMB/3v6vl3PnftX7PVepwjb+Mf77&#xA;9fz70b+WP5fXfnHXVhIaPSbUh9RuRtRe0an+d6beHXOy1epGKP8ASPJ4jTac5JeT6c1vVdL8p+XA&#xA;8UaRQ2yLBYWi7AsBREHsAN/bOP1+tGGBnLc9PMvV9naE6jIMceXXyDxry55mubHzVDrFzIXMsp+u&#xA;sf2klNH2HhWoHtnFaTWSx5xkJ67/AB5vf67QRyaY4ojkPT7xye5jSbN9ZGs/aufqwtkbYgR8y9R8&#xA;652/5eJy+L14a/S+efmJjF4X8PFxfGqR2ZDjuxVgv54f+Su1r/o1/wCouHMzQf30fj9xcXW/3R+H&#xA;3vNf+cZ/+O/rP/MIn/JzM/tX6Y+9w+zeZYt+eTs35n6wCahBbBR4D6rEafecyez/AO5Hx+9x9b/e&#xA;n8dE2s/N/wDzkBFaQR2tvqQtUjVYOGlIV9MKAvE/VzUUyqWDS3uR/pv2tgzaitr/ANL+xj1t5U/M&#xA;W98yxalc6JqIvLm9W4nuXs5o19V5Q7SNREVRyNT0Ay85sQhQkKrvao4shnZBu+5lv/OSv/KW6Z/z&#xA;AD/k9JmN2V9B97f2j9Q9yYa1NJH/AM426YiMQs0iJIPFRdSPT/glByvGP8LP46Nkz/gw/HV555E1&#xA;f8wtNe9fydFcyPII1vWtbRbsgDkYw3KOXhX4vCv0ZnaiGKVeJXzpwsE8kb4PutM/Mz/nN5nghg1z&#xA;S9TvIrdzJCP0aYyrEUO8UKHpleL8vjNxMR/nftbMnjTFSB+X7EwvLPX9I/I2ay1CzuLF59fCtDcR&#xA;PCxg+rK4bi4UlfVj6+OQjKMtRYIPo/SzIlHBRFepOv8AnGe1tX1nWrlwDcw28KQkjcJI7F6fSi5V&#xA;2qTwxDZ2aBZL6BzSO2fIf5sSPJ+Y2vM7ciLkqCfBVVVH0AZ0+jH7qPuef1f94X1T5WsF0/y1pNit&#xA;KWtnBESNgSkagn6TvnOZZcUye8u9xxqIHk+Zfzwt4IfzM1YQgKHEEjgfzvAhb7+udBoCThH46uk1&#xA;o/elmn5myyS/kT5ReQ1f1LIVPgtnMB+AzE0g/wAJn8fvDk6k/uI/D7ky/wCcZv8Aji63/wAxMX/J&#xA;s5X2r9Ufc2dnfSfewX8//wDyY1x/zDW//EMzOzf7r4uLr/7z4PoH8vYYofInl5I1CqdOtXIH8zwq&#xA;7H6WYnNLqTeSXvLtsA/dx9wfL/llFi/M/So4xxRNbgVQOyi7UU+7Ohym8J/q/odHj2yj+t+l9gZy&#xA;70K2WWOKN5ZGCRxgs7saAKBUkn2wSkALPJMYkmhzL5/86eYm17XprxSfqqfurRT2iU7H5satnAdo&#xA;avx8pl05D3PpfZei/LYRH+Lmff8As5JFmE7B2KonTdPuNRv7ext15TXLiNB/rHqfYdTlmHHKcxGP&#xA;Mlq1GWOPGZy+kB79oWgaD5U0VrXT4ltLKHlPcPVjVqVeRiSx6L9HQZ6RkynhuZvhHM+T5TDGDKoC&#xA;uI8h5vGfOvmybzFqplFUsYKpaQnsvdyP5m/szgu0dcdRkv8AhHIPpHZXZw0uOv4zzP6PglOk6Zda&#xA;pqNvYWq8prhwi+AHdj7KNzmLgwyyTEI8y5uozxw4zOXKL6Ps7ZbW0gtkJZYI1jVj1IRQoJ+7PRcc&#xA;OCIj3CnyzLPjkZHqbVcmwdirBfzw/wDJXa1/0a/9RcOZmg/vo/H7i4ut/uj8Pvea/wDOM/8Ax39Z&#xA;/wCYRP8Ak5mf2r9Mfe4fZvMtf85C+StQh1seabeIy6fdpHHeSKK+lNGPTUt4K6BQD47eGPZucGPA&#xA;eYRr8JvjHJb5J/5yBk0XQrbSdW01736kgit7qKQKxjXZVdWB+yu1QcOfs3jkZRNWuHX8MakOTOvI&#xA;v53WfmvzQmiLprWSSwyPBM8wdnkjAbhwCKB8AY/aPTMPUaA44cV25WDWDJLhqmA/85K/8pbpn/MA&#xA;P+T0mZvZX0H3uJ2j9Q9zNvLflhvM35C2mjxkLcTwSPbM3QTRXLulT2DFeJPgcw8uXw9SZfjk5WPH&#xA;x4BHyeO+SPOWt/l55kuTJalutvqWnSHgSUO3xUbiyHoaH8c2uowRzwG/uLrsOaWGR2970u4/5ya0&#xA;8Qk22hSvN2Ek6qv3hGP4Zrx2UesnNPaQ6Bmnm3Sf+VgflkhtVCXV9bQX9khNQs3ESCMsadalK++Y&#xA;mGfg5t+hpycsPFxbdd3zr5Q82a75E8yPdRQlZ4+Vvf2E4Kc1qCyMOqsCKg9vltm9zYY5oV8i6fFl&#xA;lilb1/T/APnI3T7/AFPTrGPRpIRd3EUE88k68YlkcKzABPipX2zVy7MMQTfIOxj2gCQK5sT/AOcg&#xA;PJd7Y+Y28yQRF9N1IIJ5FFRFcIoSjeAcKCD3Ncyezc4MOA8w4+vwkS4uhTLyb/zkHb6X5Yj07WbK&#xA;e71GyjEVpNCUCSoooglLEFCo2qFauQz9mmU7iaBZ4deIxqQ3Dzq0tPMH5g+dZCic77U5jLcOoPpw&#xA;x1ALGtaJGtAKnwHXM4yjgx+QcMCWafmXsf8AzkDYW+n/AJa6PYW4pb2d9bQQg9QkVrMi/gM1fZsj&#xA;LKSeoP3h2OvjWMAd/wCgof8A5xm/44ut/wDMTF/ybOHtX6o+5HZ30n3sF/P/AP8AJjXH/MNb/wDE&#xA;czOzf7r4uLr/AO8+D6E8hf8AKDeXf+2ZZ/8AUOmaTUf3kv6x+922D+7j7g+XvL3/AJNPTP8AtuQf&#xA;9Ra50OT+5P8AV/Q6SH98P636X19nMPQPKPzL8+JdB9E0qTlbg0vbhejkf7rQ/wAtftHv8uvKdsdp&#xA;if7rGfT1Pf5e57PsLsgwrNkHq/hHd5+/ueb5zr1LsVdir1j8qPKT28R168TjLMvGxQ9RGftSf7Lo&#xA;Pb551XYeg4R4suZ+n9bxntF2iJHwYHYfV7+74fjk9Av7OG+sp7Oevo3MbRScTQ8XFDQ/Tm/y4xOJ&#xA;ieRFPNYcpxzExzibfPXmLQrvQ9Wm0+4FTGaxSU2eM/ZcfP8AXnn2r00sOQwl0+19O0WrjqMQnHrz&#xA;8i9R/K/yedMsv0tepS+u1/co3WOE7/Qz9T7fTnT9i9n+HHxJfVLl5D9rx/b/AGn4s/CgfRHn5n9j&#xA;O83zzrsVdiqC1nRtM1rTZtM1OAXNjccfWhYsobgwdd1KnZlB65OEzA2ObGcBIUeSX+XfI3lTy5PN&#xA;PounrZyzqEldXkbkoNQPjZu+Ty6ieT6jbDHhhD6RSdywxTRPDMiyRSArJG4DKynYgg7EHKgabSGE&#xA;335KflreTmZtIELseTCCWaJD7cFcIo/1QMyo6/KBzcaWjxHom2gfl35K8vzi40nSYbe5WvC4blLK&#xA;tRQ8XlLsu3gcryanJPaRZ48EIcgv8w+Q/KXmK6juta05Ly4hT0o5GeRSEqWp8DKOrHBi1E4Comk5&#xA;MMJm5C000nSdO0jTodO06EW9lbgiGEFiFBYsd2JPUnvlc5mRs82cYiIockr8xeQvJ/mOQS6zpcV1&#xA;MAB6/wAUctB0BkiKOQPCuWYtROH0mmGTBCf1BJLP8kfy0tXDjSPWcGoM007j5cS/E/SMulr8x6tQ&#xA;0eIdGa2lnaWdtHa2kKW9tCoSKGJQiKo6BVGwzElIk2XJAAFBJfMXkLyf5ikEus6XDdTgAeuOUcpA&#xA;6AyRFHIHhXLcWoyQ+k015MEJ/UEn0/8AJf8ALexmSePSRJNG3JHmmmkoRuPhL8O3hlstdlO1tcdH&#xA;jG9Myu7S1vLaS1u4UuLaZSssMihkZT2ZTscxQSDYcggEUXn15+QP5dXF0Z0t7i2UkkwQzn09/wDX&#xA;DsPoOZse0coFW4h0OMnky3yz5O8t+WbZrfRbFLVZKerIKvI5HTnI5Zj8q0GY2XPPIbkbcjHijAVE&#xA;K3mHyzofmKySy1m1W8tY5BMkTM6gSKrKGqhU9HODHllA3E0U5McZipC1Py75S8veXIZodFs1s4rh&#xA;g8yqztyZRQH42bDlzSn9RtGPFGH0ikFrn5c+S9d1BtQ1bTEurxlVGmZ5VJVRQCiOoyWPU5IComgx&#xA;nghI2Qn1jZW1jZW9laoIrW1jSGCIEkLHGoVVqanYDKZSJNnmW0AAUGKy/lz+W2lXQ1yXTobWe2lF&#xA;0Lt5ZQFlV+atQvSvLtTLMvaEoQPFKo0xxaETmBCNyYf52/M2fUlk0/Ry0Fg3wy3H2ZJR4Duin7z+&#xA;GcV2j2yctwx7Q7+p/UHu+yuwRiqeXefd0H6ywDNE9I7FXYqz/wDL38vW1Jk1XVoyunqawW7bGYju&#xA;f8j9fyze9ldleL+8yfR0Hf8Aseb7Z7a8K8eI+vqe79v3PYAAAABQDYAZ2Dw7sVS3VfLmj6rc2lzf&#xA;24mls2LQk9N+zAfaFd6HMXPo8eWUZTFmLl6fW5cMZRgaEuaZZlOI7FXYq7FXYq7FXYq7FXYq7FXY&#xA;q7FXYq7FXYq7FXYq7FXYq7FXYqp3Fzb20TTXEqQwpu0kjBVHzJoMjOcYi5GgyhCUjURZ8mD+Yfza&#xA;0eyDQ6Un1+4G3qmqwqfn9pvo2980er7dxw2x+o/Z+16HRezmXJvl9Eft/Z+NnmGu+ZdZ1y49bUbg&#xA;yAGscI+GNP8AVQbfT1zmdTq8mY3M39z12k0OLTxrGK8+p+KV5jOW7FVS3t57iZILeNpZpDRI0BZi&#xA;fAAZKMTI0BZYzmIi5GgHqPkz8rFhMd/r6h5RRorDZlH/ABlPRv8AV6eOdN2f2JVTzf6X9f6nkO1P&#xA;aAyuGDl/O/V+t6UAAAAKAbADOleUdirsVdirsVdirEk/NHyn67wXEk9o8bFGE0LihXY1CcyPpGag&#xA;dt6e6Nx94d0ewNTQMRGQPcR+xNLXzn5UuqelqttU9A7iM/c/HMqHaOnlynH7vvcTJ2XqYc8cvlf3&#xA;JpBdWtwOUEySr4owYfgcyoZIy+kguHPHKPMEKuTYOxV2KuxV2KuxV2KuxV2KuxV2KuxV2KoC+8wa&#xA;HYVF5f28DL1R5FDf8DXl+GY+TV4ofVKI+Lk4tHmyfRCR+DHNQ/Nfyna1EDy3rjoIUKrX/Wk4fhXN&#xA;dl7dwR5XL3D9btMPs7qZ8wI+8/qtierfnFrE4Kabax2aHpI59aT5ioVB9xzVZ+38stoAR+0/q+x3&#xA;Wm9mcUd8kjL7B+thep61quqS+rqF3Jct1HNiVH+qv2V+gZps2onkNzJLvsGlxYRUIiKCylvdiq6K&#xA;KWWRY4kaSRjRUUEsT7AYQCTQRKQiLOwZr5e/KnXdQKy6j/uOtTvRxymI9k/Z/wBl92bnSdiZcm8/&#xA;RH7fl+t0Gt9ocOPbH65fZ8/1PUPL/lLRNBi42EH74iklzJ8UrfNuw9hQZ0+k0GLAPSN+/q8jre0c&#xA;2oPrO3d0TjMxwXYq7FXYq7FXYq7FUFqGiaRqIpfWUNyaUDSIrMPkxFR9GUZdNjyfXEFyMOqy4vok&#xA;Y+4sa1D8p/KdzUwJNZsf99SFlr8pOf4ZrcvYWCXK4+4/rdrh9otTDnUveP1Uxy8/Jm+jbnp2pxuf&#xA;2RMjRkf7JC/6s12T2emPomPjt+t2mL2ogdskD8Df30l0nlL8z9N3tpbh0XvbXRI/4Hkrf8LmMdBr&#xA;cX08Xwl+1yo9o9n5fqEf86P7EJJ5l/MrTP8Aeia9hC97iHkNveRCDlR1msxczMe8frb46HQZfpED&#xA;7j+otw/mr5xjpzuIpqU+3EgrT/UC4Y9t6kdQfgES9ntKeQI+J/SjYvzj8yrQSW1pIPHhIp/CSn4Z&#xA;dH2gzjmI/b+tol7M6c8pTHy/Uio/zo1QU9TToG/m4u61+VeWWj2hydYx+1pl7L4+k5fIK8f51yiv&#xA;qaQreHG4K/rjbLI+0R6w+39jWfZYdMn+x/av/wCV2f8Aam/6ef8Ar1h/0R/7X/sv+Osf9Cv+2f7H&#xA;/jzv+V2f9qb/AKef+vWP+iP/AGv/AGX/AB1f9Cv+2f7H/jyk/wCdVySeGkoo7AzE/qQZE+0UukB8&#xA;/wBjMey0euQ/6X9qGk/OfWiP3dhbKf8AKMjfqZcqPtDl6Rj9v622Psvi6zl9iDn/ADd82SV4C2h/&#xA;1Iyf+Js+Uz7d1B5cI+H67b4ezemHPiPx/UAltz+YvnK4qG1J0B7RpHH+KqDmNPtXUy5zPwofc5cO&#xA;xNJH+D52f0pRd63rN5X63fXFwD2kldh9xOYmTUZJ/VIn3lzcelxQ+mMR7gEFlTe7FXYqqW9tc3Eg&#xA;jt4nmkPRI1LN9wrkoxMjQFsZ5IxFyIA82R6b+W3m6/ofqf1WM/t3J9On+x3f/hc2GHsjUZP4eH37&#xA;ftdXn7c0uP8Ai4j/AEd/2fazDSfyasoyH1W9ecjcwwDgvyLtVj9AGbfB7PRG+SV+Q/W6PU+08ztj&#xA;jXmd/wAfazjSfL2i6RHw06zjt+xcCrn5u1WP0nN3g0mLEPRED7/m8/qdblzG8kjL7vlyTDMlxXYq&#xA;7FXYq7FXYq7FXYq7FXYq7FXYq7FXYqg7rRdHu6m6sbecnqZIkc/eQconpsUvqjE/AN+PVZYfTKQ9&#xA;xKUXP5d+TbipfTUQnvE0kdPoRgMxJ9kaaX8P3ubj7a1UeUz8aP3pXcflD5Vkr6b3UB7cJFI/4dWz&#xA;Gl2BgPIyHx/Y5kPaTUjnwn4fqKXT/ktYmvoapKnhziV/1MmY0vZ2PSZ+X7XKh7Uz6wB+NfrQUv5K&#xA;3Yr6Oqxv4c4mXb6GbKZezs+kx8nIj7Ux64z8/wBiGf8AJnXRXhfWrfy8vUWvzorZUfZ7N/Oj9v6m&#xA;0e1GHrGX2frUT+TnmcAn6zZH2Ekv/VLI/wCh/P3w+Z/Uz/0Taf8Amz+Q/wCKU/8AlUPmv+a1/wCR&#xA;jf8ANGQ/kHUf0fmz/wBEmm/pfL9q5Pye80tXlNZpT+aSTf8A4GM5IdgZz1iPif1MT7TaYdJ/IfrV&#xA;U/JrzEa87yzXw4tK364xkx7P5v50ft/UwPtPg6Rn9n60TF+S2on+91KFdv2Y2bf6SuTj7PZOsg1S&#xA;9qcfSB+aOh/JW1H99qrv/qQhP1u+Xx9nR1n9n7XHl7Uy6Yx8/wBgTG2/J/yvEQZZbqc9wzqq/wDC&#xA;qD+OZMOwMA5mR/HucXJ7S6g8hEfD9ZTmz8geT7Shj0yJyO83Kav0SFhmZj7K08OUB8d/vcHL2xqp&#xA;85n4bfcnlvbW1vH6dvEkMY6JGoUfcKZmwxxiKiAHXzySkbkSSqZNg7FXYq7FXYq7FXYq7FXYq7FX&#xA;Yq7FX//Z</xapGImg:image>
    </rdf:li>
   </rdf:Alt>
  </xap:Thumbnails>
 </rdf:Description>

 <rdf:Description rdf:about=''
  xmlns:dc='http://purl.org/dc/elements/1.1/'>
  <dc:format>image/svg+xml</dc:format>
 </rdf:Description>

</rdf:RDF>
</x:xmpmeta>
                                                                                                                                                                                                                                                                                                                                                                                                                                                                                                                                                                                                                                                                                                                                                                                                                                                                                                                                                                                                                                                                                                                                                                                                                                                                                                                                                                                                                                                                                                                                                                                                                                                                                                                                                                                                                                                                                                                                                                                                                                                                                                                                <?xpacket end='w'?>
			</metadata>
		<g id="Calque_1" i:layer="yes" i:dimmedPercent="50" i:rgbTrio="#4F008000FFFF">
			<g>
				<path i:knockout="Off" fill-rule="evenodd" clip-rule="evenodd" fill="#F96511" d="M167.937,1.619
					c18.36,5.939,31.86,14.041,39.959,23.221c5.401,5.939,9.181,11.338,11.343,17.279c3.239,7.021,4.86,15.66,4.86,25.381
					c0,6.479-1.621,12.958-4.32,19.438c-2.702,7.02-7.021,13.5-11.883,18.361c-10.797,10.799-25.918,18.898-45.896,24.84
					c-22.144,5.939-49.144,9.18-81,8.641c-21.604-0.543-48.063-2.701-78.842-7.563C0.536,131.218,0,131.759,0,132.3
					c0,0.54,0.536,1.078,1.617,1.619c22.68,5.939,49.14,10.799,78.842,13.5c27.541,2.16,52.378,1.619,74.519-1.079
					c21.059-2.7,39.418-8.103,54.54-15.122s26.46-16.201,34.559-26.459c7.563-10.801,11.343-22.68,11.343-35.64
					c0-26.459-12.96-45.36-39.42-57.779c-9.18-4.322-18.9-7.561-29.702-9.18L169.018,0l-1.622,0.538L167.937,1.619"/>
				<path i:knockout="Off" fill-rule="evenodd" clip-rule="evenodd" fill="#F96511" d="M271.617,78.3
					c0.541-1.082,0.541-1.082,1.082,0c2.157,4.319,3.779,8.639,5.4,12.418l-0.541,2.16c-2.702,5.402-6.481,10.8-10.801,16.201
					c-0.541,1.08-1.077,1.619-1.617,1.08l-7.023-10.261c-0.54-0.54,0-1.618,0.541-2.7C263.518,91.259,267.837,85.319,271.617,78.3"
					/>
				<path i:knockout="Off" fill-rule="evenodd" clip-rule="evenodd" fill="#F96511" d="M271.617,59.939
					c0.541,1.079,0.541,1.079,1.082,0.541c2.697-4.86,4.319-9.18,5.4-12.962l-0.541-2.16c-2.702-5.399-6.481-10.799-10.801-16.198
					l-1.617-0.541l-7.023,9.721l0.541,2.698L271.617,59.939"/>
				<path i:knockout="Off" fill-rule="evenodd" clip-rule="evenodd" fill="#F96511" d="M282.419,54.538
					c1.617,4.86,3.238,9.18,3.779,13.5v2.16c-0.541,3.781-2.162,8.642-4.32,13.5c-0.541,0.539-0.541,1.082-0.541,0.539
					c-0.54-4.318-2.157-8.639-4.319-13.499v-2.7c2.162-4.86,3.779-9.18,4.86-14.038C281.878,53.459,281.878,53.459,282.419,54.538"
					/>
				<path i:knockout="Off" fill-rule="evenodd" clip-rule="evenodd" fill="#1F5B9B" d="M234.896,67.5l16.203-19.982
					c0.541-1.079,1.617-1.079,2.698,0c4.86,6.482,9.721,12.962,13.5,19.982c0.54,1.079,0.54,2.16,0,3.238
					c-3.779,6.479-8.64,12.96-14.04,19.439c-0.541,1.622-1.617,1.622-2.158,0.54l-7.563-8.639l-8.641-10.8
					C233.82,70.198,233.82,69.119,234.896,67.5"/>
				<path i:knockout="Off" fill-rule="evenodd" clip-rule="evenodd" fill="#1F5B9B" d="M109.077,46.979
					c1.622-1.622,3.779-2.16,7.022-2.16v4.858c-0.541,2.162-2.162,3.241-4.86,3.241c-2.162,0-3.239-1.079-3.239-3.241
					L109.077,46.979 M116.099,39.419c-5.941,0-9.721,1.619-12.419,4.319c-1.622,1.62-2.162,3.779-2.703,6.48
					c0,2.701,0.541,4.32,2.162,5.941c1.617,1.62,3.779,2.698,6.478,2.698c2.703,0,5.401-1.079,7.022-3.239l0.541,2.7h6.478v-0.54
					l-0.541-6.48v-9.721c0-8.099-3.779-12.419-10.797-12.419c-3.784,0-6.482,1.079-9.18,2.698l0,0l1.617,5.401
					c1.622-1.619,3.779-2.16,6.482-2.16c1.617,0,3.239,0.541,3.779,1.079C115.559,36.718,116.099,37.799,116.099,39.419
					L116.099,39.419z"/>
				<path i:knockout="Off" fill-rule="evenodd" clip-rule="evenodd" fill="#1F5B9B" d="M143.64,29.698h-1.622
					c-2.698,0-4.86,1.621-6.482,4.86L135,30.238h-5.941v28.081h7.018V41.579c0.541-3.239,2.703-4.86,5.401-4.86h2.162V29.698"/>
				<path i:knockout="Off" fill-rule="evenodd" clip-rule="evenodd" fill="#1F5B9B" d="M158.757,35.099
					c1.621,0,3.242,1.079,4.319,3.241c0.54,1.619,1.081,3.239,1.081,5.939c0,2.7-0.541,4.86-1.621,6.479
					c-1.077,1.619-2.158,2.16-3.779,2.7c-1.617-0.54-3.239-1.081-4.32-2.7s-1.617-3.779-1.617-6.479c0-2.701,0.536-4.32,1.076-5.939
					C154.978,36.178,156.599,35.099,158.757,35.099 M149.037,33.479c-2.699,2.698-3.779,6.479-3.779,10.8
					c0,4.319,1.08,8.099,3.779,10.799c2.702,2.701,5.4,3.779,9.18,3.779c3.783,0,6.482-1.079,9.18-3.239
					c2.703-2.7,4.32-6.479,4.32-11.34s-1.076-8.102-3.779-10.8c-2.158-2.7-5.4-3.781-9.18-3.781S151.739,30.779,149.037,33.479z"/>
				<path i:knockout="Off" fill-rule="evenodd" clip-rule="evenodd" fill="#1F5B9B" d="M178.739,33.479
					c-2.702,2.698-4.319,6.479-4.319,11.34c0,4.32,1.08,7.559,3.779,10.259c2.697,2.701,5.941,3.779,9.721,3.779
					c2.697,0.541,5.4,0,7.018-1.079l-1.081-5.939c-1.617,0.538-3.239,1.079-4.856,1.079c-2.162,0-3.783-0.541-5.4-2.16
					c-1.081-1.619-1.621-3.779-1.621-6.479c0-2.701,0.54-4.86,2.162-6.48c1.076-1.622,2.697-2.16,4.859-2.16
					c1.617,0,3.239,0.538,4.856,1.079l1.081-5.939c-1.617-0.541-3.238-1.081-5.938-1.081
					C184.68,29.698,181.437,30.779,178.739,33.479"/>
				<polyline i:knockout="Off" fill-rule="evenodd" clip-rule="evenodd" fill="#1F5B9B" points="59.396,18.898 59.396,58.319 
					66.419,58.319 65.878,27.538 74.518,58.319 81.536,58.319 90.18,27.538 90.18,58.319 96.658,58.319 96.658,18.898 
					85.856,18.898 78.297,46.979 70.198,18.898 59.396,18.898 "/>
				
					<rect x="66.419" y="71.279" i:knockout="Off" fill-rule="evenodd" clip-rule="evenodd" fill="#1F5B9B" width="7.018" height="37.8"/> 
				<path i:knockout="Off" fill-rule="evenodd" clip-rule="evenodd" fill="#1F5B9B" d="M118.797,80.458
					c-4.32,0-7.559,1.08-10.261,3.779c-2.698,2.701-4.32,6.48-4.32,10.801c0,4.86,1.081,8.102,3.784,10.802
					c2.698,2.698,5.937,3.779,9.716,3.779c2.703,0,5.401-0.54,7.022-1.081l-1.081-5.939c-1.622,0.541-3.239,1.079-4.86,1.079
					c-2.158,0-3.779-1.079-5.401-2.698c-1.077-1.621-1.617-3.242-1.617-5.941c0-2.698,0.541-4.86,2.158-6.479
					c1.081-1.621,2.703-2.161,4.86-2.161c1.622,0,3.239,0.54,4.86,1.081l1.081-5.941C123.117,81.001,121.5,80.458,118.797,80.458"/>
				<path i:knockout="Off" fill-rule="evenodd" clip-rule="evenodd" fill="#1F5B9B" d="M149.577,84.237
					c-2.157-2.699-5.396-3.779-9.18-3.779c-3.779,0-7.018,1.08-9.716,3.779c-2.703,2.701-3.784,6.48-3.784,10.801
					s1.081,8.102,3.784,10.802c2.698,2.698,5.396,4.319,9.176,4.319c3.784,0,6.481-1.08,9.181-3.781
					c2.702-2.7,4.319-6.479,4.319-11.34C153.356,90.718,152.279,86.938,149.577,84.237 M144.18,101.517
					c-1.081,1.623-2.703,2.701-4.324,2.701c-1.617,0-2.698-1.078-3.779-2.701c-1.617-1.618-2.158-3.779-1.617-6.479l1.077-5.939
					c1.081-1.619,2.703-2.7,4.86-2.7c1.622,0,3.243,1.081,4.32,2.7c0.541,1.619,1.081,3.241,1.081,5.939
					C145.797,97.737,145.257,99.898,144.18,101.517z"/>
				<path i:knockout="Off" fill-rule="evenodd" clip-rule="evenodd" fill="#1F5B9B" d="M186.837,80.458
					c-2.157,0-3.779,0.543-5.4,1.621l-2.698,3.24c-1.622-3.781-3.779-5.4-7.559-5.4c-3.243,0-5.941,1.619-7.563,4.318v-3.236h-5.937
					v28.078h7.019V90.178c0.54-2.698,2.157-3.779,4.319-3.779c2.698,0,4.319,2.161,3.779,6.479v16.201h7.022V92.34l0.536-2.162
					c0.54-2.698,2.162-3.779,3.784-3.779c2.697,0,4.319,2.161,4.319,7.021v15.66h7.019V92.34c0-3.78-1.082-7.021-2.699-9.181
					C191.158,81.538,189,80.458,186.837,80.458"/>
				<polyline i:knockout="Off" fill-rule="evenodd" clip-rule="evenodd" fill="#1F5B9B" points="14.577,70.198 14.577,76.678 
					24.838,76.678 24.838,109.079 31.856,109.079 31.856,76.678 42.117,76.678 42.117,70.198 14.577,70.198 "/>
				<path i:knockout="Off" fill-rule="evenodd" clip-rule="evenodd" fill="#1F5B9B" d="M95.036,91.8H84.779
					c0.541-3.783,2.158-5.941,5.401-5.941c1.617,0,2.698,0.54,3.239,1.08C93.959,88.017,94.5,89.64,95.036,91.8 M99.356,84.78
					c-2.158-3.242-4.856-4.861-8.64-4.861c-4.32,0-7.559,1.619-9.716,4.861c-2.162,2.699-3.243,6.479-3.243,10.258
					c0,4.86,1.081,8.102,3.779,10.802c2.162,2.698,5.401,3.779,9.721,3.779c3.243,0,5.941-0.54,8.64-1.618l0,0l-1.077-5.402
					c-2.162,0.541-4.32,1.079-7.022,1.079c-2.158,0-3.779-0.538-4.86-1.618c-1.617-1.621-2.158-3.24-2.158-4.861h16.739v-3.24
					C101.518,90.178,100.978,87.479,99.356,84.78z"/>
				<path i:knockout="Off" fill-rule="evenodd" clip-rule="evenodd" fill="#1F5B9B" d="M55.077,91.8H44.82
					c0.536-3.783,2.698-5.941,5.396-5.941c1.622,0,2.703,0.54,3.243,1.08C54.536,88.017,55.077,89.64,55.077,91.8 M50.757,79.919
					c-3.779,0-7.018,1.619-9.721,4.861c-2.158,2.699-3.239,6.479-2.698,10.258c-0.541,4.86,0.541,8.102,3.239,10.802
					c2.703,2.698,5.941,3.779,9.721,3.779c3.239,0,5.941-0.54,8.64-1.618h0.541l-1.622-5.402c-1.617,0.541-3.779,1.079-6.478,1.079
					c-2.162,0-3.779-0.538-5.401-1.618c-1.081-1.621-1.622-3.24-2.158-4.861h16.739l0.541-3.24c0-3.78-1.081-6.479-2.703-9.178
					C57.779,81.538,54.536,79.919,50.757,79.919z"/>
			</g>
		</g>
	</svg>
