<svg id="Layer_1" data-name="Layer 1" xmlns="http://www.w3.org/2000/svg" viewBox="0 0 1665.22 1583.79"><defs><style>.cls-1{fill:#7aa4d6;}.cls-2{fill:#e95314;}.cls-3{fill:#fff;}.cls-4{fill:#29a3dd;}.cls-5{fill:#a34b3d;}.cls-6{fill:#2a5f6b;}.cls-7{fill:#13375b;}.cls-8{fill:#fae0b2;}.cls-9{fill:#f7cc7f;}.cls-10{fill:#f47458;}.cls-11{fill:#b75742;}.cls-12{fill:#f48c7f;}.cls-13{fill:#f79c8d;}.cls-14{fill:#f7a491;}.cls-15{fill:#f5866e;}.cls-16{fill:#355389;}.cls-17{fill:#184655;}.cls-18{fill:#73a2e5;}.cls-19{fill:#86b1f2;}.cls-20{fill:#466eb6;}.cls-21{fill:#f8a492;}</style></defs><path class="cls-1" d="M1827.92,1809.49c2.59,0,4.69,2.83,4.69,6.32s-2.1,6.32-4.69,6.32H172.27c-2.69,0-4.87-2.79-4.88-6.23v-.12c0-3.47,2.18-6.29,4.88-6.29Z" transform="translate(-167.39 -238.33)"/><path class="cls-2" d="M586.26,256.82V364.88a18.49,18.49,0,0,0,18.49,18.49H1115.3l96.86,53.85-12.58-53.85h0a18.48,18.48,0,0,0,18.48-18.49V256.82a18.48,18.48,0,0,0-18.48-18.49H604.75A18.49,18.49,0,0,0,586.26,256.82Z" transform="translate(-167.39 -238.33)"/><path class="cls-3" d="M623.72,293.25H1175a10.4,10.4,0,0,0,10.4-10.4h0a10.4,10.4,0,0,0-10.4-10.4H623.72a10.4,10.4,0,0,0-10.39,10.4h0A10.4,10.4,0,0,0,623.72,293.25Z" transform="translate(-167.39 -238.33)"/><path class="cls-3" d="M974.46,324.44H1175a10.4,10.4,0,0,0,10.4-10.39h0a10.4,10.4,0,0,0-10.4-10.4H974.46a10.4,10.4,0,0,0-10.4,10.4h0A10.4,10.4,0,0,0,974.46,324.44Z" transform="translate(-167.39 -238.33)"/><path class="cls-4" d="M1045.86,472.37V599.6a16.23,16.23,0,0,1-16.23,16.23H731.81l-85,47.28,15-47.39-162.43.11h0a16.23,16.23,0,0,1-16.23-16.23V472.37a16.23,16.23,0,0,1,16.23-16.23h530.34A16.23,16.23,0,0,1,1045.86,472.37Z" transform="translate(-167.39 -238.33)"/><path class="cls-3" d="M1004.88,504.36h-484a9.12,9.12,0,0,1-9.12-9.13h0a9.12,9.12,0,0,1,9.12-9.13h484a9.13,9.13,0,0,1,9.13,9.13h0A9.13,9.13,0,0,1,1004.88,504.36Z" transform="translate(-167.39 -238.33)"/><path class="cls-3" d="M1004.88,531.74h-484a9.12,9.12,0,0,1-9.12-9.12h0a9.12,9.12,0,0,1,9.12-9.13h484a9.13,9.13,0,0,1,9.13,9.13h0A9.12,9.12,0,0,1,1004.88,531.74Z" transform="translate(-167.39 -238.33)"/><path class="cls-3" d="M1004.88,561.54H590.11a9.13,9.13,0,0,1-9.13-9.13h0a9.12,9.12,0,0,1,9.13-9.13h414.77a9.13,9.13,0,0,1,9.13,9.13h0A9.13,9.13,0,0,1,1004.88,561.54Z" transform="translate(-167.39 -238.33)"/><path class="cls-5" d="M1331.53,385.1c14.73-44.89,61.89-71.08,101.73-41.48,9,6.66,20.52,19.07,25.84,28.89,14.38,26.54,14.23,56.33,29.32,82.29a188.64,188.64,0,0,1-28,11.88L1451.26,449l.79,20.27c-31.57,9.13-74.79,13.81-131.22,4.07C1319.06,440.18,1323.67,409,1331.53,385.1Z" transform="translate(-167.39 -238.33)"/><rect class="cls-6" x="1073.92" y="582.58" width="522.34" height="988.58" rx="58.02"/><rect class="cls-4" x="1077.73" y="1051.41" width="841.78" height="464.08" rx="55.47" transform="translate(2614.69 -453.51) rotate(90)"/><path class="cls-7" d="M1362.08,1289.84h267a21.1,21.1,0,0,0,21.1-21.09h0a21.1,21.1,0,0,0-21.1-21.1h-267a21.1,21.1,0,0,0-21.1,21.1h0A21.1,21.1,0,0,0,1362.08,1289.84Z" transform="translate(-167.39 -238.33)"/><path class="cls-8" d="M1613,1131.5A116.9,116.9,0,1,1,1464.46,1059,116.91,116.91,0,0,1,1613,1131.5Z" transform="translate(-167.39 -238.33)"/><path class="cls-9" d="M1595.24,1137.62a98.1,98.1,0,1,1-124.66-60.85A98.1,98.1,0,0,1,1595.24,1137.62Z" transform="translate(-167.39 -238.33)"/><path class="cls-3" d="M1494.25,1239l.27-16.37a79.52,79.52,0,0,1-20.57-4,10,10,0,0,1-6.36-12.06l.17-.61a10,10,0,0,1,12.93-6.76,58.05,58.05,0,0,0,18.64,3.53c9.83.16,16.61-3.52,16.73-10.41.1-6.55-5.34-10.78-18-15.3-18.34-6.51-30.78-15.33-30.51-32,.25-15.17,11.14-26.88,29.64-30.2l.27-16.37,16.89.28-.25,15.17a73.4,73.4,0,0,1,15.69,2.52,10,10,0,0,1,6.83,12.22h0a10,10,0,0,1-12.56,6.88,52.61,52.61,0,0,0-15.11-2.4c-11.2-.19-14.9,4.58-15,9.41-.09,5.68,5.88,9.4,20.44,15.16,20.39,7.58,28.5,17.19,28.25,32.71-.26,15.33-11.33,28.25-31.21,31.37l-.29,17.58Z" transform="translate(-167.39 -238.33)"/><path class="cls-10" d="M1326.71,1391.5a30.19,30.19,0,0,1,30.19-30.19h288.33a30.19,30.19,0,1,1,0,60.37H1356.9A30.19,30.19,0,0,1,1326.71,1391.5Z" transform="translate(-167.39 -238.33)"/><polygon class="cls-11" points="1321.68 1418.98 1266.03 1320.35 1278.64 1313.23 1320.09 1386.69 1388.07 1232.67 1401.32 1238.52 1321.68 1418.98"/><path class="cls-12" d="M1253.16,720.65c4.88-4.81,13.45-9.07,12.95-9.78-2-2.86-23.22,19-21.84,12.88.77-3.44,16-21.34,21.33-22,5.22-.65,39-6,39-6l78.09-51.9s3.86-61.39-12.71-102.74c18.12-5.53,21.66-6.71,40.28-5.27,10.63,41.95,22.06,112.6,8.26,133.2-5.81,8.66-107.31,42.16-107.31,42.16s-22,8.27-26,8.52c-3.1.2-11.65-.52-15.82.13-9.49,1.48-21.24,15.58-22,14C1246.72,732.63,1248.19,725.56,1253.16,720.65Z" transform="translate(-167.39 -238.33)"/><path class="cls-9" d="M1360.5,536.21a272.91,272.91,0,0,1,14.89-24.33c7.6-13.57,27.25-20.43,27.25-20.43s6.58.13,14.13.5a5.92,5.92,0,0,0,1.42,2.52c2.84,2.13,19.09-.62,29.59,6.53,35.2,30.27,25.46,177,22.7,223.33l-87.87.38S1376.8,625.64,1355,600C1339.86,582.18,1349.62,556.33,1360.5,536.21Z" transform="translate(-167.39 -238.33)"/><path class="cls-13" d="M1336.41,1052.41c-1-1.74-13.16-31.19-23.13-44.31-14.49-19.05-139.75-191.53-134.59-233.51,2.25-18.34,56.52-33.88,63-35,34.54,4.64-1.75,34.37,24.2,58.81-16.87,5.77-26.82,13-23.17,17.72,14.6,19,92.13,172,95.5,174,15,8.8,20.91,4.72,20.91,4.72s-3.46,86.08-10.62,83.36S1347,1072,1336.41,1052.41Z" transform="translate(-167.39 -238.33)"/><path class="cls-11" d="M1365.43,995.4,1351,1082.12c-3.26,11.22-8.74,11.09-10.14,9.59-2.89-3.09-4.21-26.25-4.56-39.41,6.54-20.09,5.92-57.91,1.89-62.17C1348,990.3,1365.42,993.47,1365.43,995.4Z" transform="translate(-167.39 -238.33)"/><path class="cls-14" d="M1313.65,782.92c-19.43-32.23-18.4-28.15-52.22-42.71-13.55,5.45-58.91,33.87-64.66,39.13l72.14,52.32C1266.55,825.81,1291.68,796.76,1313.65,782.92Z" transform="translate(-167.39 -238.33)"/><path class="cls-14" d="M1408.81,441.81s5.89,42.22,10,52.48-22.63,32.2-44.88,38.86,6.8-22.66,5.88-33.63-5-62.9-5-62.9Z" transform="translate(-167.39 -238.33)"/><path class="cls-15" d="M1409.09,443.74l-33.35,4.3c.38,4.87.85,10.85,1.34,17,7.24,5.64,21.59,5.53,35.19-.9C1410.79,455.38,1409.6,447.3,1409.09,443.74Z" transform="translate(-167.39 -238.33)"/><path class="cls-16" d="M1317.62,727.19c15-1.38,64.77-6.44,64.77-6.44l88.24-11.86s15.59,37.26,16.2,60.63c1.06,40.89-36.57,75.35-68.75,73.37-19.16-1.17-127.61-3.54-148.77-11.4-4.38-33.31-9.41-69.41-31.86-93.38C1273.4,733.17,1297.22,729.06,1317.62,727.19Z" transform="translate(-167.39 -238.33)"/><path class="cls-14" d="M1316.49,1035.59c-2.41-2.5-21.78-134.91-33.45-190.49a46.71,46.71,0,0,0-23.33-31.41l-62.94-34.35c-21.81,19.95,79.94,243.91,89.25,267.39,6.41,16.17,10.44,49.56,10.91,51.59,5.23,22.9-1.59,24.84,4.92,29.65s35.7-78.8,35.7-78.8S1329.26,1048.82,1316.49,1035.59Z" transform="translate(-167.39 -238.33)"/><path class="cls-17" d="M1335.45,733h0c0,3.33-3,6-6.84,6l-106.91.25c-3.79,0-7.59-3.26-8.82-7.32l1.95,1.3c0-3.33,3.06-6,6.84-6.05l106.91-.26C1332.37,726.92,1335.45,729.61,1335.45,733Z" transform="translate(-167.39 -238.33)"/><path class="cls-17" d="M1222.78,737.07a15.75,15.75,0,0,0,1.93-.12c5.53-.7,9.16-4.23,8.1-7.89L1192,587.87c-1.06-3.65-6.4-6-11.93-5.35s-9.17,4.23-8.11,7.88l40.8,141.19C1213.71,734.82,1218,737.07,1222.78,737.07Z" transform="translate(-167.39 -238.33)"/><path class="cls-14" d="M1254.27,717.94c6.11-3.06,15.59-4.46,15.33-5.29-1-3.35-28.23,14-25,8.54,1.8-3,22-18.4,27.35-17.37,5.16,1,38.94,6.4,38.94,6.4l86.94-31.42s16.58-54.07,13.64-98.53c18.94.36,32.18,3.51,49.44,10.65-2.9,43.18-13.93,113.9-33.43,129.2-8.21,6.44-115.09,6.83-115.09,6.83S1289,728,1285,727c-3-.78-10.92-4.11-15.09-4.78-9.47-1.55-25,8.23-25.28,6.43C1244.42,727.33,1248,721.06,1254.27,717.94Z" transform="translate(-167.39 -238.33)"/><path class="cls-10" d="M1405.42,533.12c1.22-13.67,2.89-27.43,16.82-33.34,8.63-3.66,19-2.32,26.78,2.7,9.3,6,13,16.87,14.17,27.45,2.7,24,4,49.1,2.35,73.24-17.26-7.14-40.74-3.36-59.69-3.72C1401.63,578.29,1403.84,550.92,1405.42,533.12Z" transform="translate(-167.39 -238.33)"/><path class="cls-14" d="M1267.18,705c-14.85,3.8-14,3.52-14.62,3.9-10.5,6.61-9.67,9.48,6.45,2.57a3.13,3.13,0,0,1,1.29-.25l7.64.08a3.2,3.2,0,0,0,2.15-5.6h0A3.2,3.2,0,0,0,1267.18,705Z" transform="translate(-167.39 -238.33)"/><path class="cls-10" d="M1296.27,1093.43s.64,10.5-2.89,18.92-17,11.59-13.76,15.93,29.33,0,29.33,0l30.16-73.76a6.83,6.83,0,0,0-1.72-7.94c-3.63-3.17-10.27-7.69-20.74-10.82C1316.65,1035.76,1318.27,1082,1296.27,1093.43Z" transform="translate(-167.39 -238.33)"/><path class="cls-9" d="M574.79,1188.14a5.46,5.46,0,0,1-1.59-.23,5.55,5.55,0,0,1-3.73-6.91l25-83.77a5.55,5.55,0,1,1,10.63,3.18l-25,83.77A5.55,5.55,0,0,1,574.79,1188.14Z" transform="translate(-167.39 -238.33)"/><rect class="cls-18" x="374.34" y="925.23" width="166.94" height="220.31"/><path class="cls-7" d="M697.2,1027.78l3,2.72a3.74,3.74,0,0,0,5.25-.13l53.93-59.32a3.66,3.66,0,0,0-.41-5.2l-3-2.73a3.75,3.75,0,0,0-5.26.13l-53.93,59.33A3.68,3.68,0,0,0,697.2,1027.78Z" transform="translate(-167.39 -238.33)"/><path class="cls-14" d="M514.37,979.58c7.21-5.86,63,18.62,62.24,27.14s38.9,91.11,38.9,91.11l68.44-54.6,0,0c.61-2,7.1-23.22,7.41-27,.33-4,11.9-11,17.27-9.93s-4.59,7.77-5.25,9c-1.78,3.37,5.11,4.63,5.11,4.63s19.77-10.86,20.19-17.24,4.5-19.78,8.78-17c2.2,1.45,2.18,10.94,1.49,15.45,1.27-5.11,3.07-10.89,4.82-11.46,3.2-1.05,4.79,3,4.21,5s-5.75,23.72-7.32,26.16-33.46,28.14-38.06,33.73c0,0-88.53,101.26-94.83,103.91-5.53,2.32-25.25-32.57-43.88-55.74S491.84,997.91,514.37,979.58Z" transform="translate(-167.39 -238.33)"/><path class="cls-12" d="M335.75,1724.18s-12.16,11.88-12.44,16.24-1.07,51.06,3.89,55.41,19.55,7.45,14.86,12.36c-3.54,3.7-30.81,2.91-48.88,1.92-5.28-.29-11.89-42.41-14-48.6-3-9-10.41-29.24-7.66-35.51,1.35-3,7.78-9.33,16.84-15.19,9.53-6.16,18.65-19.87,18.65-19.87Z" transform="translate(-167.39 -238.33)"/><path class="cls-14" d="M461.76,1751.84s-10.88,30.77-10.9,30.85c-.81,4.88-4,16.92-4,21.36,0,16.65,75-14.14,58.22-21.52-1.52-.66-6.3-6-6.8-11.67-.77-8.73,6.32-19.68,6.32-19.68Z" transform="translate(-167.39 -238.33)"/><path class="cls-17" d="M579.48,1178.82s5.47,55.16,5.47,56c0,89.23,17.68,263.55,14.32,280.32-8.21,40.93-96.48,249.68-96.48,249.68l-47.71-5.71,62.17-249.93-22.87-100.6L462,1209.71Z" transform="translate(-167.39 -238.33)"/><path class="cls-16" d="M419.36,1227.61l-9.05,52.29-24.49,215.18L292.55,1705.4s13.12,30.6,32.47,34.9l148.45-215.93,92.22-276.3-3.24-61.38Z" transform="translate(-167.39 -238.33)"/><path class="cls-10" d="M598.51,1047.47l-66.16,6.76s-3-54.27-3-80.16c0-31.41,2.67-71.86,6.46-71,10.64,2.44,25,8.32,33.49,20C598.79,963.71,598.51,1047.47,598.51,1047.47Z" transform="translate(-167.39 -238.33)"/><path class="cls-9" d="M566,968.53c1.38,9.58,26.81,269.91,26.81,269.91-120.45,58.21-186.92,10.37-186.92,10.37s3.94-182.81-.78-207.69c-3.12-16.46-7-125.85,3.64-128.92,13.68-3.93,29.37-8.11,46.46-9.88,14.6-1.52,71.29-2.4,81.44,1C536.66,903.33,560.18,928.26,566,968.53Z" transform="translate(-167.39 -238.33)"/><path class="cls-17" d="M289,1710.52s28,79,39,82.8c2.91,1,16.9,3.58,19.54,9.77.79,1.87,0,8.09,0,8.09H289.08s-7.39-34.8-10.31-50.09c0,0-15.47-37.37-13.75-40.76S289,1710.52,289,1710.52Z" transform="translate(-167.39 -238.33)"/><path class="cls-17" d="M442.6,1809.54l8.59-27.16s18.05,7.64,27.07,6.36,26.64-6.36,26.64-6.36c36,11.86,65.53,17.62,60.16,27.16H442.6Z" transform="translate(-167.39 -238.33)"/><path class="cls-9" d="M610.47,1194.48a3.57,3.57,0,0,1-4.17-2.9,416.36,416.36,0,0,1-5-43.33c-1.89-33.79,2.67-52.91,13.92-58.45s29.23,2.36,55,24.11a410.42,410.42,0,0,1,31.49,29.94,3.55,3.55,0,0,1-.19,5.07h0a3.55,3.55,0,0,1-5-.2c-23.47-25.16-63.43-59.77-78.18-52.51s-11.08,60.14-5,94.16a3.56,3.56,0,0,1-2.84,4.11Z" transform="translate(-167.39 -238.33)"/><path class="cls-8" d="M637.48,1171.4c-3,0,.11-1.26-.11-4.27-5.74-80.84-23.79-72.46-24.58-74.74-1.33-3.83,2.88-6.43,5.77-5.4,2.54.9,22.84,10.81,24.47,78.73a5.55,5.55,0,0,1-5.42,5.68Z" transform="translate(-167.39 -238.33)"/><polygon class="cls-19" points="541.29 893.52 420.64 951.13 477.9 1185.27 681.52 1082.2 541.29 893.52"/><path class="cls-14" d="M607.79,1158.53a17.77,17.77,0,0,0,1.82-1.35c-2.15-25.51-1.76-50.22,6.24-58.57-.19-.4-1.94-4.12-3.77-8-9.27,7.17-13.67,26.24-11.94,57.18.12,2.13.73,3.75,1.22,6.4C604,1157.17,606.48,1159.08,607.79,1158.53Z" transform="translate(-167.39 -238.33)"/><polygon class="cls-20" points="697.89 1051.02 541.29 893.52 681.52 1082.2 686.27 1061.59 697.89 1051.02"/><path class="cls-21" d="M286.6,1241.19a7.76,7.76,0,0,1,0-1.67c1.78-18,16.74-169.42,19.26-175.85,2.27-5.81,69.36-101.83,69.36-101.83l33,44.95-64.53,86.12c-1.44,5.48-24.72,107.67-24.72,107.67s-4.77,18.63-6.91,29.79c1,2.69,1.93,5.22,2.78,7.31a67.81,67.81,0,0,0,6.95,11.18c2.89,3.87,7.65,12.32,8.24,14.58.68,2.63,1.92,8.09,2.61,11.39s1.66,7.14,1.82,8.93c.09,1.09,1.22,3.26,2.08,4.79a2.88,2.88,0,0,1-3.4,4.16c-2.34-.78-4.17-3.82-5.29-5.71-3.18-5.34-4.87-15.09-5.66-14.57s-3.57,17.06-4,18.93-3.78,21.08-5.66,24.59-4.38,2.92-5,.72c-.57-1.89,2.08-28.77,2.08-28.77s.33-3.43-1.17-2.36-3.95,25.48-5,29-3.42,5.46-5.44,2.59c-2.45-3.49,1.77-29.37,1.77-29.37s.47-3.26-.92-3-3.13,21.1-4.21,22.89-3.8,2.45-5.11-.55c-1.53-3.53,2.44-26.6,2.44-26.6s-.19-1.84-1.06-1.23-3.62,18.23-5.41,19.86a1.9,1.9,0,0,1-2.76,0c-3.29-2.24,1.76-19,1.71-27.34s3.81-17.7,2.66-27.62C286.93,1243.68,286.73,1242.16,286.6,1241.19Z" transform="translate(-167.39 -238.33)"/><path class="cls-9" d="M322.78,1022.65l57.3,38.5s32.31-48.09,49.64-65.22c21.72-21.45-7.91-87.16-21.9-83.44C376.52,920.8,322.78,1022.65,322.78,1022.65Z" transform="translate(-167.39 -238.33)"/><path class="cls-5" d="M507.14,734.91s-19.64-20.72-35.43,4.48c0,0-12.17-6.83-20.7,5.34,0,0-22-6.62-27.32,26.27,0,0-11.31-2.13-12.81,11.32a33.33,33.33,0,0,0,5.34,22.43s-6.36,4.77-3.47,17.14C415.2,832.41,423.9,834,423.9,834s2.35,17.73,10,23.06,18.14,2.78,18.14,2.78,2.78,9.61,11.74,8.76,20.07-9.4,30.1-5.56,36.07-.21,36.07-.21,29.24-13,20.49-42.93c0,0,15.36-13.88,1.92-30.54,0,0,9.82-26.06-9.61-41.43S507.14,734.91,507.14,734.91Z" transform="translate(-167.39 -238.33)"/><path class="cls-14" d="M503.82,875.56,507.38,902s8,38-2.28,45.34-43.57-46.43-43.57-46.43L465.05,834Z" transform="translate(-167.39 -238.33)"/><path class="cls-10" d="M463.91,855.67c8.47,22.8,28.62,36.82,42.93,42.26l-3-22.37L465.05,834Z" transform="translate(-167.39 -238.33)"/><path class="cls-5" d="M410.53,788.55c0,10.19,5.79,18.44,12.93,18.44s12.93-8.25,12.93-18.44-5.79-18.44-12.93-18.44S410.53,778.37,410.53,788.55Z" transform="translate(-167.39 -238.33)"/><path class="cls-5" d="M449.31,748.92c0,5.85,7.05,10.6,15.73,10.6s15.73-4.75,15.73-10.6-7-10.6-15.73-10.6S449.31,743.07,449.31,748.92Z" transform="translate(-167.39 -238.33)"/><path class="cls-14" d="M488.72,763.75c20.79-7.16,42.95,6.66,46.12,28.1a266,266,0,0,1,2.86,33.86c.56,30.82-15.38,60.81-29.37,60.81s-52.64-19.95-54-63.7C453.43,795.8,466.91,771.26,488.72,763.75Z" transform="translate(-167.39 -238.33)"/><path class="cls-14" d="M464.6,826.28c0,6.79-4.5,12.31-10.06,12.31s-10.06-5.52-10.06-12.31S449,814,454.54,814,464.6,819.48,464.6,826.28Z" transform="translate(-167.39 -238.33)"/><path class="cls-5" d="M549.32,748.41c14.44,11.46,19.51,28.86,11.3,38.87s-26.56,8.85-41-2.61-19.51-28.85-11.31-38.86S534.87,737,549.32,748.41Z" transform="translate(-167.39 -238.33)"/><path class="cls-5" d="M511.55,757.8c0,5-6,9-13.42,9s-13.41-4-13.41-9,6-9,13.41-9S511.55,752.83,511.55,757.8Z" transform="translate(-167.39 -238.33)"/><path class="cls-5" d="M551.46,796.1A11.45,11.45,0,1,1,540,784.52,11.52,11.52,0,0,1,551.46,796.1Z" transform="translate(-167.39 -238.33)"/><path class="cls-3" d="M523,852.7l-27.36,1.08s1,10.38,13.09,10.25C523.39,863.87,523,852.7,523,852.7Z" transform="translate(-167.39 -238.33)"/><path class="cls-14" d="M1398.48,359.48s18.08.9,26.81,17.12,13.32,62.63-18.33,82.18-54.39-12.33-53.61-42S1358.41,351.73,1398.48,359.48Z" transform="translate(-167.39 -238.33)"/><path class="cls-14" d="M1345.25,415c2.23,6.95,7.18,11.42,11,10s5.2-8.24,3-15.19-7.18-11.42-11-10S1343,408.05,1345.25,415Z" transform="translate(-167.39 -238.33)"/><path class="cls-5" d="M1397.29,354.4s16.66,46.18,33.29,51S1445.7,433,1445.7,433s2.55-52.73-12.57-65.5S1397.29,354.4,1397.29,354.4Z" transform="translate(-167.39 -238.33)"/><path class="cls-14" d="M1424.37,415.23c-2.63,7.27-1,14.61,3.64,16.4s10.52-2.67,13.15-9.94,1-14.61-3.64-16.4S1427,408,1424.37,415.23Z" transform="translate(-167.39 -238.33)"/><path class="cls-3" d="M1372.41,434.39l27.47,3.12s-1.82,10.37-13.94,9.34C1371.16,445.6,1372.41,434.39,1372.41,434.39Z" transform="translate(-167.39 -238.33)"/></svg>